<?xml version="1.0" standalone="no"?>
<!DOCTYPE svg PUBLIC "-//W3C//DTD SVG 20010904//EN"
 "http://www.w3.org/TR/2001/REC-SVG-20010904/DTD/svg10.dtd">
<svg version="1.0" xmlns="http://www.w3.org/2000/svg"
 width="1120.000000pt" height="335.000000pt" viewBox="0 0 1120.000000 335.000000"
 preserveAspectRatio="xMidYMid meet">
<metadata>
Created by potrace 1.16, written by Peter Selinger 2001-2019
</metadata>
<g transform="translate(0.000000,335.000000) scale(0.100000,-0.100000)"
fill="#000000" stroke="none">
<path d="M2988 3323 c1436 -2 3788 -2 5225 0 1436 1 261 2 -2613 2 -2874 0
-4049 -1 -2612 -2z"/>
<path d="M350 3251 c-98 -30 -180 -99 -227 -191 l-28 -55 0 -1330 0 -1330 29
-55 c38 -74 89 -125 161 -163 l60 -32 5255 0 5255 0 55 28 c73 38 125 89 163
162 l32 60 0 1330 0 1330 -29 57 c-35 69 -94 128 -166 165 l-55 28 -5240 2
c-2882 1 -5251 -2 -5265 -6z m3409 -492 c27 -6 69 -24 92 -41 l41 -30 -28 -29
c-24 -25 -30 -27 -43 -15 -102 89 -266 37 -301 -96 -15 -52 2 -127 38 -170 32
-38 95 -67 142 -68 69 0 147 56 165 118 6 22 5 22 -84 22 l-91 0 0 40 0 41
128 -3 127 -3 3 -47 c6 -90 -57 -187 -147 -226 -21 -9 -64 -15 -101 -15 -235
1 -356 286 -191 451 71 70 150 93 250 71z m2240 -5 c192 -57 249 -314 99 -450
-55 -49 -101 -67 -175 -67 -195 -1 -322 207 -233 384 29 58 56 86 105 112 76
39 127 44 204 21z m-1671 -36 l3 -38 -110 0 -111 0 0 -70 0 -70 100 0 100 0 0
-40 0 -40 -100 0 -100 0 0 -70 0 -70 111 0 110 0 -3 -37 -3 -38 -150 0 -150 0
-3 245 c-1 134 0 250 3 258 3 10 39 12 152 10 l148 -3 3 -37z m412 2 l0 -40
-70 0 -70 0 0 -220 0 -220 -40 0 -40 0 0 220 0 220 -70 0 -70 0 0 40 0 40 180
0 180 0 0 -40z m305 -220 l0 -255 -37 -3 -38 -3 0 261 0 261 38 -3 37 -3 0
-255z m423 218 l3 -38 -70 0 -71 0 0 -220 0 -220 -40 0 -40 0 0 220 0 220 -70
0 -70 0 0 40 0 40 178 -2 177 -3 3 -37z m993 -140 l114 -182 3 183 2 182 38
-3 37 -3 0 -255 0 -255 -37 -3 -36 -3 -119 190 -118 189 -3 -189 -2 -189 -40
0 -40 0 0 260 0 260 44 0 43 0 114 -182z m-4596 -327 c555 -315 839 -482 858
-503 20 -24 27 -43 27 -73 0 -64 -33 -92 -268 -225 -117 -66 -214 -120 -217
-120 -2 0 -81 77 -176 171 l-171 171 -512 -511 c-281 -281 -514 -511 -517
-511 -4 0 -14 18 -23 40 -14 36 -16 140 -16 986 0 828 2 949 15 982 24 58 50
74 115 69 51 -4 112 -37 885 -476z m2238 -347 c78 -20 148 -55 198 -101 l40
-36 -48 -49 c-52 -53 -62 -57 -87 -29 -28 31 -131 71 -198 78 -169 15 -319
-70 -395 -225 -36 -71 -38 -81 -37 -166 0 -70 6 -105 23 -149 32 -81 114 -168
199 -209 62 -31 73 -33 172 -33 93 0 112 3 161 26 101 48 171 132 186 224 l6
35 -177 0 -176 0 0 75 0 75 98 0 c55 0 167 3 250 7 l150 6 8 -49 c12 -79 -10
-198 -53 -284 -157 -320 -631 -364 -884 -81 -83 93 -138 235 -139 357 -1 175
100 357 252 458 119 80 304 108 451 70z m2897 -539 l0 -515 -75 0 -75 0 0 515
0 515 75 0 75 0 0 -515z m1594 486 c66 -33 122 -91 155 -160 35 -75 36 -181 2
-256 -29 -65 -101 -138 -165 -167 -45 -20 -71 -23 -208 -26 l-158 -4 0 -194 0
-194 -80 0 -80 0 0 516 0 515 243 -3 c233 -3 244 -4 291 -27z m416 -486 l0
-515 -75 0 -75 0 0 515 0 515 75 0 75 0 0 -515z m498 148 c67 -20 138 -82 168
-148 23 -48 24 -60 24 -282 l0 -233 -75 0 -75 0 0 42 c0 41 0 42 -15 20 -25
-35 -96 -71 -155 -78 -107 -12 -200 32 -250 119 -51 89 -39 187 31 254 86 81
246 106 373 57 23 -9 21 23 -4 64 -22 35 -87 71 -130 72 -46 0 -99 -20 -128
-49 l-28 -29 -59 24 c-33 14 -63 28 -67 32 -12 12 58 89 108 118 73 43 173 49
282 17z m-4522 2 c153 -45 248 -176 247 -342 -1 -132 -78 -249 -201 -310 -50
-24 -69 -28 -147 -28 -78 0 -97 4 -147 28 -77 38 -134 96 -171 175 -70 151
-21 332 117 427 92 63 199 81 302 50z m828 -24 c211 -104 255 -390 86 -559
-117 -117 -296 -134 -437 -43 -246 160 -192 535 90 627 26 8 72 13 119 11 62
-3 89 -10 142 -36z m696 18 c25 -11 55 -30 68 -41 l22 -21 0 31 0 32 71 0 70
0 -3 -367 c-3 -353 -4 -370 -26 -424 -47 -118 -139 -185 -269 -196 -125 -10
-242 43 -310 141 -18 27 -33 52 -33 56 0 4 30 21 67 36 49 21 68 25 71 16 9
-28 59 -76 97 -93 85 -39 190 -9 232 65 21 39 41 151 29 163 -3 4 -16 -3 -29
-14 -59 -54 -138 -71 -226 -49 -273 70 -361 407 -154 596 94 86 224 114 323
69z m1035 -15 c31 -15 71 -45 90 -66 35 -38 85 -127 85 -150 0 -7 -100 -54
-230 -107 -127 -51 -230 -96 -230 -98 0 -19 50 -69 84 -84 75 -34 162 -19 221
38 19 18 38 33 42 33 4 0 32 -18 60 -39 l53 -38 -35 -41 c-22 -25 -63 -54
-103 -74 -60 -30 -75 -33 -157 -33 -78 0 -97 4 -147 28 -120 59 -188 163 -196
298 -7 128 34 225 130 302 90 73 226 85 333 31z m2427 -209 c49 -121 91 -221
92 -223 2 -1 43 99 91 223 l89 225 84 0 c64 0 83 -3 80 -13 -2 -8 -95 -226
-208 -485 l-205 -472 -77 0 c-43 0 -78 4 -78 8 0 4 34 81 74 171 71 156 74
166 62 195 -7 17 -68 155 -135 307 -66 152 -121 279 -121 283 0 4 36 6 81 4
l81 -3 90 -220z"/>
<path d="M5839 2667 c-34 -17 -50 -35 -71 -77 -35 -68 -35 -114 0 -181 62
-119 216 -132 298 -23 26 34 29 45 29 114 0 69 -3 80 -29 114 -55 73 -148 94
-227 53z"/>
<path d="M8220 1566 l0 -175 118 -3 c64 -2 131 1 149 5 124 30 167 205 71 294
-45 42 -89 53 -218 53 l-120 0 0 -174z"/>
<path d="M9343 1159 c-61 -14 -95 -53 -91 -102 4 -51 38 -78 105 -84 84 -8
173 55 189 133 5 27 2 31 -29 42 -50 18 -125 23 -174 11z"/>
<path d="M4769 1367 c-68 -36 -103 -93 -107 -175 -4 -83 23 -142 86 -186 49
-34 136 -46 196 -26 178 59 181 321 4 394 -55 23 -127 20 -179 -7z"/>
<path d="M5539 1367 c-68 -36 -103 -93 -107 -175 -4 -83 23 -142 86 -186 49
-34 136 -46 196 -26 178 59 181 321 4 394 -55 23 -127 20 -179 -7z"/>
<path d="M6339 1367 c-68 -36 -103 -93 -107 -175 -3 -56 0 -74 20 -112 50 -93
161 -135 245 -92 82 42 120 120 110 221 -15 140 -151 220 -268 158z"/>
<path d="M7323 1365 c-49 -30 -80 -75 -89 -133 l-7 -43 49 20 c175 69 259 109
259 121 0 8 -15 25 -34 37 -48 32 -122 31 -178 -2z"/>
<path d="M25 1675 c0 -715 1 -1006 2 -647 2 360 2 945 0 1300 -1 356 -2 62 -2
-653z"/>
<path d="M11175 1675 c0 -715 1 -1006 2 -647 2 360 2 945 0 1300 -1 356 -2 62
-2 -653z"/>
<path d="M2988 23 c1436 -2 3788 -2 5225 0 1436 1 261 2 -2613 2 -2874 0
-4049 -1 -2612 -2z"/>
</g>
</svg>
