<svg width="321" height="188" viewBox="0 0 321 188" fill="none" xmlns="http://www.w3.org/2000/svg">
<path d="M76.9087 175.117V173.905H81.9166V175.117L80.3558 175.384V180.184H87.1161V175.384L85.5553 175.117V173.905H90.5632V175.117L89.0024 175.384V186.33L90.5632 186.597V187.8H85.5553V186.597L87.1161 186.33V181.663H80.3558V186.33L81.9166 186.597V187.8H76.9087V186.597L78.4695 186.33V175.384L76.9087 175.117Z" fill="#666360"/>
<path d="M98.913 187.8C98.8555 187.52 98.8108 187.268 98.7789 187.046C98.747 186.823 98.7247 186.6 98.7119 186.378C98.348 186.842 97.8916 187.23 97.3426 187.542C96.8 187.847 96.2191 188 95.5999 188C94.5211 188 93.7008 187.739 93.139 187.217C92.5773 186.689 92.2964 185.948 92.2964 184.994C92.2964 184.014 92.6922 183.26 93.4837 182.732C94.2817 182.198 95.3733 181.931 96.7585 181.931H98.7023V180.728C98.7023 180.124 98.5108 179.647 98.1278 179.297C97.7448 178.94 97.2118 178.762 96.5287 178.762C96.0563 178.762 95.6382 178.823 95.2743 178.944C94.9168 179.064 94.6264 179.23 94.403 179.44L94.2019 180.528H92.7464V178.524C93.2188 178.148 93.7901 177.849 94.4604 177.627C95.1307 177.398 95.8584 177.283 96.6436 177.283C97.8182 177.283 98.7694 177.582 99.4971 178.18C100.225 178.778 100.589 179.634 100.589 180.747V185.719C100.589 185.853 100.589 185.983 100.589 186.11C100.595 186.238 100.605 186.365 100.617 186.492L101.383 186.597V187.8H98.913ZM95.8776 186.425C96.5032 186.425 97.0745 186.276 97.5916 185.977C98.1087 185.678 98.4789 185.318 98.7023 184.898V183.2H96.6915C95.9191 183.2 95.3062 183.378 94.853 183.734C94.4062 184.09 94.1827 184.523 94.1827 185.032C94.1827 185.484 94.3232 185.831 94.6041 186.072C94.8849 186.308 95.3094 186.425 95.8776 186.425Z" fill="#666360"/>
<path d="M102.954 186.597L104.515 186.33V178.953L102.954 178.686V177.474H106.401V186.33L107.962 186.597V187.8H102.954V186.597ZM106.401 174.83H104.515V172.912H106.401V174.83Z" fill="#666360"/>
<path d="M109.408 178.686V177.474H112.654L112.836 178.972C113.129 178.444 113.49 178.031 113.918 177.732C114.352 177.433 114.846 177.283 115.402 177.283C115.549 177.283 115.699 177.296 115.852 177.321C116.011 177.34 116.133 177.363 116.216 177.388L115.967 179.134L114.894 179.077C114.396 179.077 113.978 179.195 113.64 179.43C113.302 179.659 113.04 179.984 112.855 180.404V186.33L114.416 186.597V187.8H109.408V186.597L110.968 186.33V178.953L109.408 178.686Z" fill="#666360"/>
<path d="M121.99 186.53C122.615 186.53 123.164 186.339 123.637 185.958C124.115 185.57 124.355 185.096 124.355 184.536H126.05L126.069 184.593C126.101 185.484 125.702 186.276 124.872 186.969C124.048 187.656 123.088 188 121.99 188C120.483 188 119.331 187.51 118.533 186.53C117.741 185.551 117.346 184.32 117.346 182.837V182.436C117.346 180.967 117.745 179.742 118.543 178.762C119.341 177.776 120.49 177.283 121.99 177.283C122.82 177.283 123.563 177.42 124.221 177.693C124.885 177.967 125.434 178.342 125.868 178.819L125.954 181.11H124.451L124.039 179.487C123.815 179.271 123.528 179.096 123.177 178.963C122.826 178.829 122.43 178.762 121.99 178.762C121 178.762 120.292 179.118 119.864 179.831C119.443 180.537 119.232 181.406 119.232 182.436V182.837C119.232 183.893 119.443 184.774 119.864 185.481C120.285 186.18 120.994 186.53 121.99 186.53Z" fill="#666360"/>
<path d="M135.319 186.273C134.993 186.826 134.572 187.252 134.055 187.551C133.544 187.85 132.954 188 132.283 188C131.16 188 130.282 187.641 129.65 186.922C129.018 186.203 128.702 185.083 128.702 183.562V178.953L127.515 178.686V177.474H130.588V183.581C130.588 184.682 130.751 185.439 131.077 185.853C131.402 186.266 131.91 186.473 132.599 186.473C133.27 186.473 133.822 186.339 134.256 186.072C134.696 185.799 135.028 185.414 135.252 184.918V178.953L133.863 178.686V177.474H137.138V186.33L138.325 186.597V187.8H135.443L135.319 186.273Z" fill="#666360"/>
<path d="M143.113 174.983V177.474H145.076V178.867H143.113V185.137C143.113 185.621 143.212 185.961 143.41 186.158C143.614 186.355 143.882 186.454 144.214 186.454C144.38 186.454 144.565 186.441 144.77 186.416C144.98 186.384 145.156 186.352 145.296 186.32L145.555 187.609C145.376 187.723 145.114 187.815 144.77 187.885C144.425 187.962 144.08 188 143.735 188C142.969 188 142.36 187.771 141.907 187.313C141.453 186.848 141.227 186.123 141.227 185.137V178.867H139.589V177.474H141.227V174.983H143.113Z" fill="#666360"/>
<path d="M154.929 180.719H153.512L153.206 179.478C152.976 179.262 152.685 179.09 152.334 178.963C151.989 178.829 151.597 178.762 151.156 178.762C150.486 178.762 149.988 178.909 149.663 179.201C149.337 179.494 149.174 179.847 149.174 180.26C149.174 180.668 149.318 180.989 149.605 181.224C149.892 181.46 150.477 181.67 151.358 181.854C152.666 182.134 153.64 182.516 154.278 182.999C154.916 183.477 155.236 184.119 155.236 184.927C155.236 185.843 154.862 186.584 154.115 187.151C153.375 187.717 152.404 188 151.204 188C150.419 188 149.714 187.911 149.088 187.733C148.463 187.548 147.904 187.284 147.412 186.941L147.403 184.584H148.82L149.174 185.967C149.391 186.165 149.685 186.308 150.055 186.397C150.432 186.486 150.815 186.53 151.204 186.53C151.875 186.53 152.398 186.397 152.775 186.13C153.158 185.856 153.349 185.5 153.349 185.061C153.349 184.647 153.19 184.307 152.87 184.04C152.558 183.772 151.961 183.54 151.08 183.343C149.822 183.069 148.874 182.697 148.236 182.226C147.598 181.756 147.278 181.119 147.278 180.318C147.278 179.478 147.636 178.762 148.351 178.171C149.072 177.579 150.007 177.283 151.156 177.283C151.942 177.283 152.647 177.385 153.273 177.588C153.898 177.792 154.418 178.075 154.833 178.438L154.929 180.719Z" fill="#666360"/>
<path d="M161.737 184.059C161.737 183.282 161.961 182.605 162.408 182.026C162.861 181.441 163.534 180.855 164.428 180.27C163.93 179.64 163.56 179.08 163.317 178.59C163.075 178.094 162.953 177.585 162.953 177.064C162.953 175.988 163.263 175.161 163.882 174.582C164.508 173.997 165.366 173.704 166.458 173.704C167.467 173.704 168.287 173.994 168.919 174.573C169.551 175.152 169.867 175.848 169.867 176.663C169.867 177.286 169.698 177.827 169.359 178.285C169.027 178.737 168.533 179.201 167.875 179.678L166.831 180.442L170.087 184.345C170.349 183.931 170.553 183.473 170.7 182.971C170.847 182.468 170.92 181.937 170.92 181.377H172.605C172.605 182.21 172.481 182.983 172.232 183.696C171.983 184.409 171.622 185.048 171.15 185.614L172.921 187.752L172.902 187.8H170.709L169.896 186.826C169.385 187.208 168.82 187.501 168.201 187.704C167.581 187.901 166.94 188 166.276 188C164.891 188 163.786 187.634 162.963 186.903C162.146 186.171 161.737 185.223 161.737 184.059ZM166.276 186.53C166.736 186.53 167.189 186.454 167.636 186.301C168.083 186.142 168.504 185.916 168.9 185.624L165.443 181.472L165.06 181.749C164.479 182.182 164.093 182.595 163.901 182.99C163.716 183.384 163.624 183.741 163.624 184.059C163.624 184.778 163.85 185.369 164.303 185.834C164.757 186.298 165.414 186.53 166.276 186.53ZM164.84 177.044C164.84 177.382 164.926 177.735 165.098 178.104C165.271 178.466 165.529 178.864 165.874 179.297L167.195 178.39C167.559 178.148 167.805 177.887 167.933 177.607C168.067 177.321 168.134 177.006 168.134 176.663C168.134 176.275 167.977 175.931 167.664 175.632C167.358 175.333 166.956 175.184 166.458 175.184C165.941 175.184 165.542 175.365 165.261 175.727C164.98 176.084 164.84 176.523 164.84 177.044Z" fill="#666360"/>
<path d="M189.037 178.008H187.61L187.256 176.023C186.968 175.782 186.585 175.581 186.107 175.422C185.628 175.263 185.073 175.184 184.441 175.184C183.438 175.184 182.669 175.397 182.133 175.823C181.597 176.243 181.329 176.793 181.329 177.474C181.329 178.078 181.6 178.584 182.142 178.991C182.691 179.392 183.576 179.745 184.795 180.051C186.263 180.413 187.377 180.948 188.137 181.654C188.903 182.36 189.286 183.235 189.286 184.278C189.286 185.398 188.826 186.298 187.907 186.979C186.994 187.66 185.797 188 184.316 188C183.244 188 182.289 187.825 181.453 187.475C180.623 187.125 179.947 186.667 179.423 186.101V183.515H180.84L181.204 185.509C181.568 185.808 182.002 186.053 182.506 186.244C183.011 186.435 183.614 186.53 184.316 186.53C185.267 186.53 186.017 186.33 186.566 185.929C187.122 185.528 187.399 184.984 187.399 184.297C187.399 183.661 187.16 183.13 186.681 182.704C186.202 182.271 185.357 181.908 184.144 181.616C182.669 181.266 181.517 180.75 180.687 180.07C179.857 179.389 179.442 178.533 179.442 177.502C179.442 176.415 179.905 175.511 180.831 174.792C181.756 174.067 182.96 173.704 184.441 173.704C185.417 173.704 186.305 173.873 187.103 174.21C187.907 174.541 188.552 174.945 189.037 175.422V178.008Z" fill="#666360"/>
<path d="M190.808 186.597L192.369 186.33V174.391L190.808 174.124V172.912H194.255V178.848C194.613 178.352 195.05 177.967 195.567 177.693C196.084 177.42 196.659 177.283 197.291 177.283C198.402 177.283 199.263 177.614 199.876 178.275C200.489 178.937 200.795 179.955 200.795 181.329V186.33L202.356 186.597V187.8H197.348V186.597L198.909 186.33V181.31C198.909 180.458 198.724 179.828 198.354 179.421C197.99 179.014 197.444 178.81 196.716 178.81C196.199 178.81 195.727 178.934 195.299 179.182C194.878 179.424 194.53 179.755 194.255 180.175V186.33L195.816 186.597V187.8H190.808V186.597Z" fill="#666360"/>
<path d="M210.486 187.8C210.428 187.52 210.384 187.268 210.352 187.046C210.32 186.823 210.297 186.6 210.285 186.378C209.921 186.842 209.464 187.23 208.915 187.542C208.373 187.847 207.792 188 207.173 188C206.094 188 205.273 187.739 204.712 187.217C204.15 186.689 203.869 185.948 203.869 184.994C203.869 184.014 204.265 183.26 205.056 182.732C205.854 182.198 206.946 181.931 208.331 181.931H210.275V180.728C210.275 180.124 210.084 179.647 209.7 179.297C209.317 178.94 208.784 178.762 208.101 178.762C207.629 178.762 207.211 178.823 206.847 178.944C206.49 179.064 206.199 179.23 205.976 179.44L205.775 180.528H204.319V178.524C204.792 178.148 205.363 177.849 206.033 177.627C206.703 177.398 207.431 177.283 208.216 177.283C209.391 177.283 210.342 177.582 211.07 178.18C211.798 178.778 212.161 179.634 212.161 180.747V185.719C212.161 185.853 212.161 185.983 212.161 186.11C212.168 186.238 212.177 186.365 212.19 186.492L212.956 186.597V187.8H210.486ZM207.45 186.425C208.076 186.425 208.647 186.276 209.164 185.977C209.681 185.678 210.052 185.318 210.275 184.898V183.2H208.264C207.492 183.2 206.879 183.378 206.426 183.734C205.979 184.09 205.755 184.523 205.755 185.032C205.755 185.484 205.896 185.831 206.177 186.072C206.458 186.308 206.882 186.425 207.45 186.425Z" fill="#666360"/>
<path d="M217.926 178.686L216.681 178.877L218.816 184.755L218.989 185.5H219.046L219.228 184.755L221.296 178.877L220.042 178.686V177.474H224.044V178.686L223.192 178.829L219.716 187.8H218.29L214.775 178.829L213.923 178.686V177.474H217.926V178.686Z" fill="#666360"/>
<path d="M229.924 188C228.481 188 227.332 187.523 226.477 186.569C225.628 185.608 225.203 184.364 225.203 182.837V182.417C225.203 180.948 225.64 179.726 226.515 178.753C227.396 177.773 228.436 177.283 229.637 177.283C231.028 177.283 232.081 177.703 232.796 178.543C233.518 179.383 233.878 180.502 233.878 181.902V183.076H227.156L227.128 183.123C227.147 184.116 227.399 184.933 227.884 185.576C228.369 186.212 229.049 186.53 229.924 186.53C230.562 186.53 231.121 186.441 231.599 186.263C232.085 186.079 232.503 185.827 232.854 185.509L233.591 186.731C233.221 187.087 232.729 187.389 232.117 187.637C231.51 187.879 230.779 188 229.924 188ZM229.637 178.762C229.005 178.762 228.465 179.029 228.018 179.564C227.571 180.092 227.297 180.757 227.195 181.558L227.214 181.606H231.992V181.358C231.992 180.62 231.794 180.003 231.398 179.507C231.003 179.01 230.415 178.762 229.637 178.762Z" fill="#666360"/>
<path d="M243.674 180.719H242.257L241.95 179.478C241.721 179.262 241.43 179.09 241.079 178.963C240.734 178.829 240.342 178.762 239.901 178.762C239.231 178.762 238.733 178.909 238.408 179.201C238.082 179.494 237.919 179.847 237.919 180.26C237.919 180.668 238.063 180.989 238.35 181.224C238.637 181.46 239.221 181.67 240.102 181.854C241.411 182.134 242.385 182.516 243.023 182.999C243.661 183.477 243.98 184.119 243.98 184.927C243.98 185.843 243.607 186.584 242.86 187.151C242.12 187.717 241.149 188 239.949 188C239.164 188 238.459 187.911 237.833 187.733C237.207 187.548 236.649 187.284 236.157 186.941L236.148 184.584H237.565L237.919 185.967C238.136 186.165 238.43 186.308 238.8 186.397C239.177 186.486 239.56 186.53 239.949 186.53C240.619 186.53 241.143 186.397 241.52 186.13C241.903 185.856 242.094 185.5 242.094 185.061C242.094 184.647 241.935 184.307 241.615 184.04C241.303 183.772 240.706 183.54 239.825 183.343C238.567 183.069 237.619 182.697 236.981 182.226C236.342 181.756 236.023 181.119 236.023 180.318C236.023 179.478 236.381 178.762 237.096 178.171C237.817 177.579 238.752 177.283 239.901 177.283C240.687 177.283 241.392 177.385 242.018 177.588C242.643 177.792 243.163 178.075 243.578 178.438L243.674 180.719Z" fill="#666360"/>
<path d="M115.953 12.6924L116.987 12.5493L121.861 0H123.479L128.267 12.5493L129.292 12.6924V13.8949H125.289V12.6924L126.342 12.5111L125.423 9.95353H119.841L118.893 12.5111L119.946 12.6924V13.8949H115.953V12.6924ZM120.425 8.3789H124.849L122.685 2.41442H122.627L120.425 8.3789Z" fill="#666360"/>
<path d="M133.131 4.78113L131.944 4.99108L133.294 10.1348L133.514 11.385H133.572L133.84 10.1348L135.908 3.56915H137.421L139.499 10.1348L139.796 11.5282H139.853L140.131 10.1348L141.405 4.99108L140.198 4.78113V3.56915H144.143V4.78113L143.243 4.91473L140.629 13.8949H139.106L137.096 7.60591L136.665 5.86905L136.607 5.87859L136.205 7.60591L134.233 13.8949H132.71L130.096 4.91473L129.186 4.78113V3.56915H133.131V4.78113Z" fill="#666360"/>
<path d="M150.405 14.0953C148.963 14.0953 147.814 13.6181 146.958 12.6638C146.109 11.7031 145.685 10.4593 145.685 8.93241V8.51251C145.685 7.04286 146.122 5.82133 146.997 4.84793C147.878 3.86817 148.918 3.37828 150.118 3.37828C151.51 3.37828 152.563 3.79818 153.278 4.63798C153.999 5.47778 154.36 6.59751 154.36 7.99718V9.17099H147.638L147.609 9.2187C147.629 10.2112 147.881 11.0287 148.366 11.6713C148.851 12.3075 149.531 12.6256 150.405 12.6256C151.044 12.6256 151.602 12.5365 152.081 12.3584C152.566 12.1739 152.984 11.9226 153.336 11.6045L154.073 12.826C153.703 13.1823 153.211 13.4845 152.598 13.7326C151.992 13.9744 151.261 14.0953 150.405 14.0953ZM150.118 4.85747C149.486 4.85747 148.947 5.12468 148.5 5.6591C148.053 6.18716 147.779 6.852 147.676 7.65362L147.696 7.70134H152.474V7.45322C152.474 6.71521 152.276 6.09809 151.88 5.60184C151.484 5.1056 150.897 4.85747 150.118 4.85747Z" fill="#666360"/>
<path d="M164.156 6.81382H162.739L162.432 5.57321C162.202 5.3569 161.912 5.18512 161.561 5.05788C161.216 4.92428 160.823 4.85747 160.383 4.85747C159.713 4.85747 159.215 5.0038 158.889 5.29646C158.564 5.58912 158.401 5.94221 158.401 6.35575C158.401 6.76293 158.545 7.08421 158.832 7.31961C159.119 7.55501 159.703 7.76496 160.584 7.94946C161.893 8.2294 162.866 8.61112 163.505 9.09464C164.143 9.5718 164.462 10.2144 164.462 11.0224C164.462 11.9385 164.089 12.6797 163.342 13.2459C162.601 13.8122 161.631 14.0953 160.431 14.0953C159.646 14.0953 158.94 14.0062 158.315 13.8281C157.689 13.6436 157.131 13.3795 156.639 13.036L156.629 10.6788H158.047L158.401 12.0626C158.618 12.2598 158.912 12.4029 159.282 12.492C159.658 12.5811 160.042 12.6256 160.431 12.6256C161.101 12.6256 161.625 12.492 162.001 12.2248C162.384 11.9512 162.576 11.595 162.576 11.156C162.576 10.7424 162.416 10.4021 162.097 10.1348C161.784 9.86764 161.187 9.63542 160.306 9.4382C159.049 9.16463 158.101 8.79244 157.463 8.32165C156.824 7.85085 156.505 7.21464 156.505 6.41301C156.505 5.57321 156.862 4.85747 157.577 4.2658C158.299 3.67412 159.234 3.37828 160.383 3.37828C161.168 3.37828 161.874 3.48008 162.499 3.68366C163.125 3.88725 163.645 4.17037 164.06 4.53301L164.156 6.81382Z" fill="#666360"/>
<path d="M166.234 8.63657C166.234 7.10966 166.649 5.85315 167.478 4.86702C168.308 3.87453 169.435 3.37828 170.859 3.37828C172.288 3.37828 173.418 3.87135 174.248 4.85747C175.084 5.8436 175.503 7.1033 175.503 8.63657V8.84652C175.503 10.3862 175.088 11.6459 174.258 12.6256C173.428 13.6054 172.301 14.0953 170.878 14.0953C169.441 14.0953 168.308 13.6054 167.478 12.6256C166.649 11.6395 166.234 10.3798 166.234 8.84652V8.63657ZM168.12 8.84652C168.12 9.9408 168.35 10.8442 168.809 11.5568C169.275 12.2693 169.965 12.6256 170.878 12.6256C171.771 12.6256 172.451 12.2693 172.917 11.5568C173.383 10.8442 173.616 9.9408 173.616 8.84652V8.63657C173.616 7.55501 173.383 6.65477 172.917 5.93585C172.451 5.21693 171.765 4.85747 170.859 4.85747C169.952 4.85747 169.269 5.21693 168.809 5.93585C168.35 6.65477 168.12 7.55501 168.12 8.63657V8.84652Z" fill="#666360"/>
<path d="M176.862 12.6924L178.423 12.4252V5.04834L176.862 4.78113V3.56915H180.118L180.242 4.91473C180.574 4.42485 181.002 4.0463 181.526 3.7791C182.049 3.51189 182.655 3.37828 183.345 3.37828C184.034 3.37828 184.625 3.53734 185.116 3.85544C185.614 4.17355 185.988 4.65071 186.237 5.28692C186.562 4.7016 186.993 4.23717 187.529 3.89361C188.066 3.55006 188.691 3.37828 189.406 3.37828C190.466 3.37828 191.302 3.74092 191.915 4.4662C192.528 5.18512 192.834 6.26986 192.834 7.72043V12.4252L194.395 12.6924V13.8949H189.377V12.6924L190.938 12.4252V7.70134C190.938 6.6834 190.763 5.96448 190.412 5.54458C190.06 5.11832 189.54 4.90519 188.851 4.90519C188.193 4.90519 187.663 5.13741 187.261 5.60184C186.865 6.05991 186.636 6.63887 186.572 7.3387V12.4252L188.133 12.6924V13.8949H183.125V12.6924L184.685 12.4252V7.70134C184.685 6.7343 184.503 6.0281 184.14 5.58276C183.782 5.13105 183.262 4.90519 182.579 4.90519C182.004 4.90519 181.532 5.02289 181.162 5.25829C180.791 5.49369 180.507 5.82452 180.309 6.25078V12.4252L181.87 12.6924V13.8949H176.862V12.6924Z" fill="#666360"/>
<path d="M200.408 14.0953C198.966 14.0953 197.817 13.6181 196.961 12.6638C196.112 11.7031 195.688 10.4593 195.688 8.93241V8.51251C195.688 7.04286 196.125 5.82133 196.999 4.84793C197.88 3.86817 198.921 3.37828 200.121 3.37828C201.513 3.37828 202.566 3.79818 203.281 4.63798C204.002 5.47778 204.363 6.59751 204.363 7.99718V9.17099H197.641L197.612 9.2187C197.631 10.2112 197.884 11.0287 198.369 11.6713C198.854 12.3075 199.534 12.6256 200.408 12.6256C201.047 12.6256 201.605 12.5365 202.084 12.3584C202.569 12.1739 202.987 11.9226 203.338 11.6045L204.076 12.826C203.705 13.1823 203.214 13.4845 202.601 13.7326C201.995 13.9744 201.264 14.0953 200.408 14.0953ZM200.121 4.85747C199.489 4.85747 198.95 5.12468 198.503 5.6591C198.056 6.18716 197.781 6.852 197.679 7.65362L197.698 7.70134H202.477V7.45322C202.477 6.71521 202.279 6.09809 201.883 5.60184C201.487 5.1056 200.9 4.85747 200.121 4.85747Z" fill="#666360"/>
<rect y="147.914" width="320.771" height="2.79206" fill="#F2994A"/>
<rect y="36.2313" width="320.771" height="2.79206" fill="#F2994A"/>
<path d="M71.5061 90.3599V109.982C71.5061 111.65 71.1662 113.24 70.4864 114.751C69.8589 116.211 68.996 117.488 67.8978 118.582C66.7996 119.677 65.4923 120.536 63.9757 121.162C62.5115 121.839 60.9426 122.178 59.2692 122.178C57.5958 122.178 56.027 121.865 54.5627 121.24C53.0985 120.615 51.8173 119.781 50.7191 118.738C49.6209 117.644 48.7319 116.393 48.0521 114.986C47.4245 113.527 47.0846 111.963 47.0323 110.295V95.8323C46.8754 94.2166 46.1433 93.044 44.8359 92.3143C45.5681 91.9495 46.3002 91.7671 47.0323 91.7671V73.3171C47.0846 71.6494 47.4245 70.0858 48.0521 68.6265C48.7319 67.1672 49.6209 65.9163 50.7191 64.874C51.8173 63.7795 53.0985 62.9195 54.5627 62.2941C56.027 61.6687 57.5958 61.356 59.2692 61.356C60.9426 61.356 62.5115 61.6947 63.9757 62.3723C65.4923 62.9977 66.7996 63.8576 67.8978 64.9521C68.996 66.0466 69.8589 67.3496 70.4864 68.861C71.1662 70.3203 71.5061 71.9099 71.5061 73.6299C71.5061 74.5159 71.5846 75.1673 71.7415 75.5843C71.9506 76.0012 72.1598 76.34 72.369 76.6006C72.5782 76.8612 72.7612 77.0957 72.9181 77.3042C73.1273 77.5127 73.2319 77.8514 73.2319 78.3205H69.1529C68.3162 78.2163 67.8978 77.7733 67.8978 76.9915C67.8978 77.7733 67.4795 78.2163 66.6428 78.3205H62.4853C62.4853 77.8514 62.5638 77.5127 62.7207 77.3042C62.9298 77.0957 63.139 76.8612 63.3482 76.6006C63.5574 76.34 63.7404 76.0012 63.8973 75.5843C64.1065 75.1673 64.2111 74.4898 64.2111 73.5517V73.4735C64.2111 72.796 64.1849 71.9881 64.1326 71.05C64.0803 70.0597 63.8973 69.1216 63.5835 68.2356C63.2698 67.3496 62.773 66.5939 62.0931 65.9684C61.4133 65.343 60.472 65.0303 59.2692 65.0303C58.0142 65.0303 57.0467 65.3691 56.3669 66.0466C55.7393 66.672 55.2687 67.4278 54.9549 68.3138C54.6412 69.1998 54.4581 70.1379 54.4058 71.1282C54.3535 72.1184 54.3274 72.9523 54.3274 73.6299V91.7671C55.0595 91.7671 55.7916 91.9495 56.5238 92.3143C55.2164 93.044 54.4843 94.2166 54.3274 95.8323V109.982C54.3274 110.66 54.3535 111.494 54.4058 112.484C54.4581 113.422 54.6412 114.36 54.9549 115.299C55.2687 116.185 55.7393 116.94 56.3669 117.566C57.0467 118.191 58.0142 118.504 59.2692 118.504C60.5243 118.504 61.4656 118.191 62.0931 117.566C62.773 116.94 63.2698 116.185 63.5835 115.299C63.8973 114.36 64.0803 113.422 64.1326 112.484C64.1849 111.494 64.2111 110.66 64.2111 109.982V93.956C63.6358 94.0082 63.139 94.2427 62.7207 94.6596C62.3546 95.0766 62.1716 95.5717 62.1716 96.145V96.2232C62.1193 97.005 61.9101 97.6825 61.544 98.2558C61.2303 98.777 60.7596 99.2461 60.1321 99.663C59.5045 100.028 58.5894 100.21 57.3866 100.21V90.3599H71.5061ZM51.2682 88.0927C51.2682 87.78 51.242 87.4673 51.1897 87.1546C51.1897 86.8419 51.1897 86.5552 51.1897 86.2946V84.4966C51.1374 83.3499 51.1113 82.2555 51.1113 81.2131C51.1113 80.1707 51.0851 79.1805 51.0328 78.2423C50.9805 77.7733 50.9544 77.3563 50.9544 76.9915C50.9544 76.5745 50.9282 76.1576 50.876 75.7406C50.876 75.3758 50.8498 75.0371 50.7975 74.7243C50.7975 74.3595 50.7975 74.0468 50.7975 73.7862C50.7975 73.5256 50.7714 73.2911 50.7191 73.0826C50.7191 72.8741 50.7191 72.6917 50.7191 72.5354V72.1445C50.6668 72.1445 50.6406 72.1705 50.6406 72.2227V72.5354C50.6406 72.6917 50.6145 72.8741 50.5622 73.0826C50.5622 73.2911 50.5622 73.5256 50.5622 73.7862C50.5622 74.0468 50.536 74.3595 50.4837 74.7243C50.4837 75.0371 50.4837 75.3758 50.4837 75.7406C50.4315 76.1576 50.4053 76.5745 50.4053 76.9915C50.4053 77.3563 50.3792 77.7733 50.3269 78.2423C50.2746 79.1805 50.2484 80.1707 50.2484 81.2131C50.2484 82.2555 50.2223 83.3499 50.17 84.4966V86.2946C50.17 86.5552 50.1438 86.8419 50.0915 87.1546C50.0915 87.4673 50.0915 87.78 50.0915 88.0927V95.3632C50.0915 95.5196 50.0915 95.676 50.0915 95.8323C50.1438 95.9887 50.17 96.119 50.17 96.2232V98.8812C50.17 99.4545 50.17 100.028 50.17 100.601C50.2223 101.122 50.2484 101.644 50.2484 102.165C50.2484 102.738 50.2484 103.285 50.2484 103.806C50.3007 104.276 50.3269 104.719 50.3269 105.135C50.3792 105.605 50.4053 106.048 50.4053 106.464C50.4053 106.881 50.4315 107.272 50.4837 107.637C50.4837 108.054 50.4837 108.419 50.4837 108.732C50.536 109.044 50.5622 109.331 50.5622 109.592C50.5622 109.852 50.5622 110.087 50.5622 110.295C50.6145 110.504 50.6406 110.686 50.6406 110.842V111.233C50.6406 111.285 50.6668 111.311 50.7191 111.311V110.842C50.7191 110.686 50.7191 110.504 50.7191 110.295C50.7714 110.087 50.7975 109.852 50.7975 109.592C50.7975 109.331 50.7975 109.044 50.7975 108.732C50.8498 108.419 50.876 108.054 50.876 107.637C50.9282 107.272 50.9544 106.881 50.9544 106.464C50.9544 106.048 50.9805 105.605 51.0328 105.135C51.0328 104.719 51.0328 104.276 51.0328 103.806C51.0851 103.285 51.1113 102.738 51.1113 102.165C51.1113 101.644 51.1113 101.122 51.1113 100.601C51.1636 100.028 51.1897 99.4545 51.1897 98.8812V97.1613C51.1897 96.7444 51.2159 96.4317 51.2682 96.2232V88.0927ZM68.3685 99.4285C68.3162 98.9073 68.29 98.4382 68.29 98.0213C68.29 97.5522 68.2639 97.1092 68.2116 96.6923C68.1593 95.9105 68.0808 95.259 67.9763 94.7378C67.9763 94.6336 67.9501 94.5294 67.8978 94.4251C67.8978 94.3209 67.8978 94.2427 67.8978 94.1906V93.956L67.8194 94.0342V94.1906C67.8194 94.2427 67.7932 94.3209 67.7409 94.4251C67.7409 94.5294 67.7409 94.6336 67.7409 94.7378C67.6363 95.259 67.5579 95.9105 67.5056 96.6923C67.4533 97.1092 67.4272 97.5522 67.4272 98.0213C67.4272 98.4382 67.401 98.9073 67.3487 99.4285V100.21C67.3487 100.367 67.3226 100.523 67.2703 100.679C67.2703 100.784 67.2703 100.888 67.2703 100.992V104.276C67.2703 104.432 67.2964 104.562 67.3487 104.666V105.839C67.3487 106.1 67.3487 106.334 67.3487 106.543C67.401 106.751 67.4272 106.986 67.4272 107.246C67.4272 107.507 67.4272 107.741 67.4272 107.95C67.4795 108.158 67.5056 108.367 67.5056 108.575C67.5579 108.784 67.5841 108.992 67.5841 109.201C67.5841 109.357 67.6102 109.513 67.6625 109.67C67.6625 109.826 67.6625 109.982 67.6625 110.139C67.7148 110.295 67.7409 110.425 67.7409 110.53C67.7409 110.634 67.7409 110.738 67.7409 110.842C67.7932 110.947 67.8194 111.025 67.8194 111.077V111.233C67.8194 111.285 67.8455 111.311 67.8978 111.311V111.077C67.8978 111.025 67.8978 110.947 67.8978 110.842C67.9501 110.738 67.9763 110.634 67.9763 110.53C67.9763 110.425 67.9763 110.295 67.9763 110.139C68.0286 109.982 68.0547 109.826 68.0547 109.67C68.107 109.513 68.1331 109.357 68.1331 109.201C68.1331 108.992 68.1593 108.784 68.2116 108.575C68.2116 108.367 68.2116 108.158 68.2116 107.95C68.2639 107.741 68.29 107.507 68.29 107.246C68.29 106.986 68.29 106.751 68.29 106.543C68.3423 106.334 68.3685 106.1 68.3685 105.839V105.057C68.3685 104.849 68.3946 104.719 68.4469 104.666V100.992C68.4469 100.888 68.4208 100.784 68.3685 100.679C68.3685 100.523 68.3685 100.367 68.3685 100.21V99.4285Z" fill="#666360"/>
<path d="M100.003 91.8453C100.892 91.8453 101.624 92.0277 102.199 92.3925C101.624 92.7573 101.127 93.2524 100.709 93.8779C100.342 94.5033 100.107 95.1808 100.003 95.9105V107.715C99.9503 109.383 99.5842 110.947 98.9044 112.406C98.2768 113.813 97.414 115.064 96.3158 116.159C95.2176 117.201 93.9364 118.035 92.4722 118.66C91.0079 119.286 89.4391 119.598 87.7656 119.598C86.0922 119.598 84.5234 119.286 83.0591 118.66C81.5949 118.035 80.3137 117.201 79.2155 116.159C78.1173 115.064 77.2283 113.813 76.5485 112.406C75.9209 110.947 75.581 109.383 75.5287 107.715V95.9105C75.3718 94.2948 74.6397 93.1222 73.3324 92.3925C73.9076 92.0277 74.6397 91.8453 75.5287 91.8453V76.757C75.581 75.1413 75.9209 73.6038 76.5485 72.1445C77.2283 70.6852 78.1173 69.4343 79.2155 68.3919C80.3137 67.2975 81.5949 66.4375 83.0591 65.8121C84.5234 65.1867 86.0922 64.874 87.7656 64.874C89.4391 64.874 91.0079 65.1867 92.4722 65.8121C93.9364 66.4375 95.2176 67.2975 96.3158 68.3919C97.414 69.4343 98.2768 70.6852 98.9044 72.1445C99.5842 73.6038 99.9503 75.1413 100.003 76.757V91.8453ZM79.7646 89.0309C79.7646 88.7703 79.7384 88.5357 79.6861 88.3273C79.6861 88.0667 79.6861 87.8061 79.6861 87.5455V86.0601C79.6338 85.0699 79.6077 84.1317 79.6077 83.2457C79.6077 82.3597 79.5816 81.5258 79.5293 80.744C79.477 80.3792 79.4508 80.0144 79.4508 79.6495C79.4508 79.2847 79.4247 78.9459 79.3724 78.6332C79.3724 78.3205 79.3462 78.0339 79.2939 77.7733C79.2939 77.5127 79.2939 77.2781 79.2939 77.0697C79.2939 76.8091 79.2678 76.6006 79.2155 76.4442C79.2155 76.2358 79.2155 76.0794 79.2155 75.9752V75.5843C79.1632 75.5843 79.1371 75.6104 79.1371 75.6625V75.9752C79.1371 76.0794 79.1109 76.2358 79.0586 76.4442C79.0586 76.6006 79.0586 76.8091 79.0586 77.0697C79.0586 77.2781 79.0325 77.5127 78.9802 77.7733C78.9802 78.0339 78.9802 78.3205 78.9802 78.6332C78.9279 78.9459 78.9017 79.2847 78.9017 79.6495C78.9017 80.0144 78.8756 80.3792 78.8233 80.744C78.771 81.5258 78.7448 82.3597 78.7448 83.2457C78.7448 84.1317 78.7187 85.0699 78.6664 86.0601V87.5455C78.6664 87.8061 78.6403 88.0667 78.588 88.3273C78.588 88.5357 78.588 88.7703 78.588 89.0309V95.2069C78.588 95.5717 78.6141 95.8323 78.6664 95.9887V98.2558C78.6664 98.7249 78.6664 99.194 78.6664 99.663C78.7187 100.132 78.7448 100.575 78.7448 100.992C78.7448 101.461 78.7448 101.904 78.7448 102.321C78.7971 102.686 78.8233 103.077 78.8233 103.494C78.8756 103.911 78.9017 104.302 78.9017 104.666C78.9017 104.979 78.9279 105.292 78.9802 105.605C78.9802 105.917 78.9802 106.204 78.9802 106.464C79.0325 106.725 79.0586 106.986 79.0586 107.246C79.0586 107.507 79.0586 107.741 79.0586 107.95C79.1109 108.106 79.1371 108.237 79.1371 108.341V108.575C79.1371 108.627 79.1632 108.653 79.2155 108.653V108.341C79.2155 108.237 79.2155 108.106 79.2155 107.95C79.2678 107.741 79.2939 107.507 79.2939 107.246C79.2939 106.986 79.2939 106.725 79.2939 106.464C79.3462 106.204 79.3724 105.917 79.3724 105.605C79.4247 105.292 79.4508 104.979 79.4508 104.666C79.4508 104.302 79.477 103.911 79.5293 103.494C79.5293 103.077 79.5293 102.686 79.5293 102.321C79.5816 101.904 79.6077 101.461 79.6077 100.992C79.6077 100.575 79.6077 100.132 79.6077 99.663C79.66 99.194 79.6861 98.7249 79.6861 98.2558V95.9887C79.7384 95.8323 79.7646 95.5717 79.7646 95.2069V89.0309ZM92.7075 77.0697C92.7075 76.3921 92.6813 75.5582 92.629 74.568C92.5767 73.5777 92.3937 72.6396 92.0799 71.7536C91.7662 70.8676 91.2694 70.1119 90.5895 69.4864C89.962 68.8089 89.0207 68.4701 87.7656 68.4701C86.5106 68.4701 85.5431 68.8089 84.8633 69.4864C84.2358 70.1119 83.7651 70.8676 83.4514 71.7536C83.1376 72.6396 82.9546 73.5777 82.9023 74.568C82.85 75.5582 82.8238 76.3921 82.8238 77.0697V91.8453C83.7128 91.8453 84.4449 92.0277 85.0202 92.3925C83.7128 93.1222 82.9807 94.2948 82.8238 95.9105V107.403C82.8238 108.08 82.85 108.914 82.9023 109.904C82.9546 110.842 83.1376 111.781 83.4514 112.719C83.7651 113.605 84.2358 114.36 84.8633 114.986C85.5431 115.611 86.5106 115.924 87.7656 115.924C89.0207 115.924 89.962 115.611 90.5895 114.986C91.2694 114.36 91.7662 113.605 92.0799 112.719C92.3937 111.781 92.5767 110.842 92.629 109.904C92.6813 108.914 92.7075 108.08 92.7075 107.403V95.9105C92.6029 94.3469 91.8708 93.1743 90.5111 92.3925C91.0863 92.0277 91.8185 91.8453 92.7075 91.8453V77.0697ZM96.9433 89.0309C96.9433 88.7703 96.9433 88.5357 96.9433 88.3273C96.9433 88.0667 96.9172 87.8061 96.8649 87.5455V86.0601C96.8649 85.0699 96.8387 84.1317 96.7865 83.2457C96.7865 82.3597 96.7603 81.5258 96.708 80.744C96.6557 80.3792 96.6296 80.0144 96.6296 79.6495C96.6296 79.2847 96.6034 78.9459 96.5511 78.6332C96.5511 78.3205 96.525 78.0339 96.4727 77.7733C96.4727 77.5127 96.4727 77.2781 96.4727 77.0697C96.4727 76.8091 96.4465 76.6006 96.3942 76.4442C96.3942 76.2358 96.3942 76.0794 96.3942 75.9752V75.5843C96.3419 75.5843 96.3158 75.6104 96.3158 75.6625V75.9752C96.3158 76.0794 96.3158 76.2358 96.3158 76.4442C96.3158 76.6006 96.2897 76.8091 96.2374 77.0697C96.2374 77.2781 96.2112 77.5127 96.1589 77.7733C96.1589 78.0339 96.1589 78.3205 96.1589 78.6332C96.1066 78.9459 96.0805 79.2847 96.0805 79.6495C96.0805 80.0144 96.0543 80.3792 96.002 80.744C95.9497 81.5258 95.9236 82.3597 95.9236 83.2457C95.9236 84.1317 95.8974 85.0699 95.8451 86.0601V89.0309C95.7929 89.552 95.7667 90.0732 95.7667 90.5944C95.7667 91.1156 95.7667 91.6368 95.7667 92.158C95.7667 92.6791 95.7667 93.2003 95.7667 93.7215C95.7667 94.1906 95.7929 94.6857 95.8451 95.2069V98.2558C95.8451 98.7249 95.8451 99.194 95.8451 99.663C95.8974 100.132 95.9236 100.575 95.9236 100.992C95.9236 101.461 95.9236 101.904 95.9236 102.321C95.9759 102.686 96.002 103.077 96.002 103.494C96.0543 103.911 96.0805 104.302 96.0805 104.666C96.0805 104.979 96.1066 105.292 96.1589 105.605C96.1589 105.917 96.1589 106.204 96.1589 106.464C96.2112 106.725 96.2374 106.986 96.2374 107.246C96.2897 107.507 96.3158 107.741 96.3158 107.95C96.3158 108.106 96.3158 108.237 96.3158 108.341V108.575C96.3158 108.627 96.3419 108.653 96.3942 108.653V108.341C96.3942 108.237 96.3942 108.106 96.3942 107.95C96.4465 107.741 96.4727 107.507 96.4727 107.246C96.4727 106.986 96.4727 106.725 96.4727 106.464C96.525 106.204 96.5511 105.917 96.5511 105.605C96.6034 105.292 96.6296 104.979 96.6296 104.666C96.6296 104.302 96.6557 103.911 96.708 103.494C96.708 103.077 96.708 102.686 96.708 102.321C96.7603 101.904 96.7865 101.461 96.7865 100.992C96.7865 100.575 96.7865 100.132 96.7865 99.663C96.8387 99.194 96.8649 98.7249 96.8649 98.2558V96.7704C96.8649 96.6662 96.8649 96.5359 96.8649 96.3796C96.9172 96.2232 96.9433 96.0929 96.9433 95.9887V89.0309Z" fill="#666360"/>
<path d="M129.112 81.7603C129.112 84.1057 128.537 86.2165 127.386 88.0927C126.236 89.969 124.693 91.4283 122.758 92.4707C123.699 93.2003 124.562 94.0603 125.347 95.0505C126.131 95.9887 126.785 97.031 127.308 98.1776C127.883 99.3243 128.327 100.497 128.641 101.696C128.955 102.894 129.112 104.067 129.112 105.214V110.217C129.06 111.885 128.72 113.448 128.092 114.908C127.465 116.315 126.602 117.566 125.503 118.66C124.405 119.703 123.124 120.536 121.66 121.162C120.196 121.839 118.627 122.178 116.953 122.178H109.58C109.214 122.178 108.9 122.048 108.639 121.787C108.429 121.527 108.325 121.214 108.325 120.849C108.325 121.214 108.194 121.527 107.933 121.787C107.671 122.048 107.383 122.178 107.07 122.178H102.912C102.912 121.709 102.991 121.37 103.148 121.162C103.357 120.953 103.566 120.719 103.775 120.458C103.984 120.25 104.167 119.937 104.324 119.52C104.533 119.103 104.638 118.452 104.638 117.566V95.7541C104.481 94.1906 103.749 93.044 102.442 92.3143C103.121 91.8974 103.854 91.6889 104.638 91.6889V65.9684C104.638 65.0824 104.533 64.4309 104.324 64.014C104.167 63.5971 103.984 63.2843 103.775 63.0759C103.566 62.8153 103.357 62.5807 103.148 62.3723C102.991 62.1638 102.912 61.825 102.912 61.356H107.07C107.383 61.356 107.671 61.4863 107.933 61.7468C108.194 61.9553 108.325 62.242 108.325 62.6068C108.325 61.7729 108.743 61.356 109.58 61.356H116.953C118.627 61.356 120.196 61.6687 121.66 62.2941C123.124 62.9195 124.405 63.7795 125.503 64.874C126.602 65.9163 127.465 67.1672 128.092 68.6265C128.72 70.0858 129.06 71.6233 129.112 73.239V81.7603ZM108.874 87.5455C108.874 87.1807 108.848 86.8419 108.795 86.5292C108.795 86.1643 108.795 85.8256 108.795 85.5129V83.4802C108.743 82.1252 108.717 80.8483 108.717 79.6495C108.717 78.4508 108.691 77.3303 108.639 76.2879C108.586 75.7146 108.56 75.1934 108.56 74.7243C108.56 74.2553 108.534 73.8123 108.482 73.3953C108.482 72.9784 108.455 72.5875 108.403 72.2227C108.403 71.8057 108.403 71.4669 108.403 71.2063C108.403 70.8936 108.377 70.607 108.325 70.3464C108.325 70.0858 108.325 69.8773 108.325 69.721V69.2519C108.272 69.304 108.246 69.3561 108.246 69.4083V69.721C108.246 69.8773 108.22 70.0858 108.168 70.3464C108.168 70.607 108.168 70.8936 108.168 71.2063C108.168 71.4669 108.142 71.8057 108.089 72.2227C108.089 72.5875 108.089 72.9784 108.089 73.3953C108.037 73.8123 108.011 74.2553 108.011 74.7243C108.011 75.1934 107.985 75.7146 107.933 76.2879C107.88 77.3303 107.854 78.4508 107.854 79.6495C107.854 80.8483 107.828 82.1252 107.776 83.4802V85.5129C107.776 85.8256 107.776 86.1643 107.776 86.5292C107.776 86.8419 107.75 87.1807 107.697 87.5455V95.9105C107.697 96.119 107.697 96.3014 107.697 96.4577C107.75 96.6141 107.776 96.7965 107.776 97.005V99.9757C107.776 100.653 107.776 101.331 107.776 102.008C107.828 102.634 107.854 103.233 107.854 103.806C107.854 104.38 107.854 104.953 107.854 105.526C107.906 106.1 107.933 106.673 107.933 107.246C107.985 107.507 108.011 107.767 108.011 108.028C108.011 108.237 108.011 108.471 108.011 108.732C108.011 108.992 108.011 109.227 108.011 109.435C108.063 109.644 108.089 109.852 108.089 110.061C108.089 110.478 108.089 110.895 108.089 111.311C108.142 111.676 108.168 112.015 108.168 112.328C108.168 112.641 108.168 112.927 108.168 113.188C108.22 113.396 108.246 113.579 108.246 113.735V114.126C108.246 114.178 108.272 114.23 108.325 114.282V113.735C108.325 113.579 108.325 113.396 108.325 113.188C108.377 112.927 108.403 112.641 108.403 112.328C108.403 112.015 108.403 111.676 108.403 111.311C108.455 110.895 108.482 110.478 108.482 110.061C108.534 109.852 108.56 109.644 108.56 109.435C108.56 109.227 108.56 108.992 108.56 108.732C108.56 108.471 108.56 108.237 108.56 108.028C108.612 107.767 108.639 107.507 108.639 107.246C108.639 106.673 108.639 106.1 108.639 105.526C108.691 104.953 108.717 104.38 108.717 103.806C108.717 103.233 108.717 102.634 108.717 102.008C108.769 101.331 108.795 100.653 108.795 99.9757V98.0213C108.795 97.5522 108.822 97.2135 108.874 97.005V87.5455ZM125.033 108.653C124.981 108.81 124.954 109.07 124.954 109.435V110.842C124.954 111.103 124.928 111.338 124.876 111.546C124.876 111.755 124.876 111.963 124.876 112.171C124.876 112.38 124.85 112.562 124.798 112.719C124.798 112.875 124.798 113.031 124.798 113.188V113.422C124.745 113.474 124.719 113.553 124.719 113.657V114.048C124.667 114.1 124.641 114.152 124.641 114.204V114.36C124.641 114.413 124.614 114.465 124.562 114.517C124.562 114.517 124.562 114.543 124.562 114.595C124.562 114.647 124.536 114.699 124.484 114.751H124.562C124.562 114.751 124.588 114.699 124.641 114.595C124.641 114.595 124.667 114.543 124.719 114.439C124.771 114.386 124.798 114.334 124.798 114.282C124.85 114.23 124.876 114.178 124.876 114.126C124.928 114.074 124.954 114.022 124.954 113.97C125.007 113.917 125.033 113.839 125.033 113.735C125.137 113.631 125.19 113.5 125.19 113.344C125.294 113.136 125.399 112.771 125.503 112.25C125.608 111.937 125.66 111.728 125.66 111.624C125.713 111.52 125.739 111.416 125.739 111.311C125.739 111.155 125.765 111.025 125.817 110.921C125.817 110.816 125.817 110.712 125.817 110.608C125.87 110.452 125.896 110.321 125.896 110.217C125.948 110.061 125.974 109.826 125.974 109.513C126.026 109.253 126.053 108.992 126.053 108.732C126.053 108.471 126.079 108.21 126.131 107.95V104.666C126.131 104.406 126.105 104.145 126.053 103.885C126.053 103.624 126.026 103.363 125.974 103.103C125.974 102.79 125.948 102.556 125.896 102.399C125.896 102.295 125.87 102.191 125.817 102.087C125.817 101.93 125.817 101.8 125.817 101.696C125.765 101.591 125.739 101.487 125.739 101.383C125.739 101.227 125.713 101.096 125.66 100.992C125.66 100.888 125.634 100.784 125.582 100.679C125.582 100.575 125.582 100.471 125.582 100.367C125.477 100.054 125.425 99.8715 125.425 99.8194C125.373 99.663 125.294 99.4806 125.19 99.2721C125.19 99.1158 125.137 98.9855 125.033 98.8812C125.033 98.7249 124.981 98.5946 124.876 98.4904C124.771 98.2819 124.693 98.1255 124.641 98.0213C124.588 97.9692 124.562 97.9171 124.562 97.8649H124.484C124.484 97.8649 124.51 97.917 124.562 98.0213C124.562 98.0734 124.562 98.1255 124.562 98.1776C124.614 98.1776 124.641 98.2037 124.641 98.2558C124.641 98.3601 124.667 98.4643 124.719 98.5685V98.9594C124.771 99.0637 124.798 99.194 124.798 99.3503C124.798 99.6109 124.824 99.7933 124.876 99.8976V100.445C124.928 100.653 124.954 100.862 124.954 101.07C124.954 101.279 124.954 101.513 124.954 101.774V102.477C124.954 102.582 124.954 102.712 124.954 102.868C125.007 102.973 125.033 103.077 125.033 103.181V108.653ZM121.817 105.214C121.817 104.536 121.791 103.572 121.738 102.321C121.686 101.07 121.503 99.8194 121.189 98.5685C120.875 97.3177 120.379 96.2493 119.699 95.3632C119.071 94.4251 118.13 93.956 116.875 93.956H114.051C113.476 93.956 112.979 94.1645 112.561 94.5815C112.142 94.9984 111.933 95.4935 111.933 96.0668V116.393C111.933 116.966 112.142 117.461 112.561 117.878C112.979 118.243 113.476 118.452 114.051 118.504H116.875C118.13 118.504 119.071 118.191 119.699 117.566C120.379 116.888 120.875 116.106 121.189 115.22C121.503 114.334 121.686 113.396 121.738 112.406C121.791 111.416 121.817 110.582 121.817 109.904V105.214ZM121.817 73.5517C121.817 72.8741 121.791 72.0663 121.738 71.1282C121.686 70.1379 121.503 69.1998 121.189 68.3138C120.875 67.4278 120.379 66.672 119.699 66.0466C119.071 65.3691 118.13 65.0303 116.875 65.0303H114.051C113.476 65.0303 112.979 65.2388 112.561 65.6557C112.142 66.0727 111.933 66.5678 111.933 67.1411V88.1709C111.933 88.7442 112.142 89.2393 112.561 89.6563C112.979 90.0732 113.476 90.2817 114.051 90.2817H116.875C118.13 90.2817 119.071 89.969 119.699 89.3436C120.379 88.7181 120.875 87.9624 121.189 87.0764C121.503 86.1383 121.686 85.2002 121.738 84.262C121.791 83.2718 121.817 82.4379 121.817 81.7603V73.5517ZM125.347 83.8711C125.451 83.5584 125.503 83.3499 125.503 83.2457C125.608 83.0372 125.66 82.8288 125.66 82.6203C125.713 82.516 125.739 82.4118 125.739 82.3076C125.739 82.1512 125.765 82.0209 125.817 81.9167C125.817 81.8125 125.817 81.7082 125.817 81.604C125.87 81.4476 125.896 81.2913 125.896 81.1349C125.948 80.9786 125.974 80.718 125.974 80.3531C126.026 80.0925 126.053 79.8319 126.053 79.5714C126.053 79.3108 126.079 79.0502 126.131 78.7896V77.0697C126.131 76.4964 126.131 75.9491 126.131 75.4279C126.131 74.8546 126.105 74.3074 126.053 73.7862C126 73.6299 125.974 73.4996 125.974 73.3953C125.974 73.239 125.948 73.1087 125.896 73.0044C125.896 72.6396 125.87 72.379 125.817 72.2227C125.765 71.9621 125.713 71.7275 125.66 71.5191C125.66 71.3106 125.634 71.1021 125.582 70.8936C125.477 70.5809 125.425 70.3725 125.425 70.2682C125.32 70.0597 125.268 69.9034 125.268 69.7991C125.164 69.5907 125.085 69.4343 125.033 69.3301C125.033 69.1737 124.981 69.0434 124.876 68.9392C124.824 68.7828 124.745 68.6004 124.641 68.3919L124.484 68.2356V68.3138C124.484 68.3659 124.484 68.3919 124.484 68.3919C124.536 68.3919 124.562 68.418 124.562 68.4701C124.614 68.5222 124.641 68.6004 124.641 68.7047C124.641 68.8089 124.667 68.9131 124.719 69.0174V69.4083C124.771 69.5125 124.798 69.6689 124.798 69.8773C124.798 69.9816 124.798 70.0858 124.798 70.19C124.85 70.2422 124.876 70.3203 124.876 70.4246V70.9718C124.928 71.1803 124.954 71.3888 124.954 71.5972C124.954 71.8057 124.954 72.0402 124.954 72.3008V73.0826C124.954 73.1868 124.954 73.3171 124.954 73.4735C125.007 73.5777 125.033 73.682 125.033 73.7862V79.5714C124.981 79.7277 124.954 79.9883 124.954 80.3531V81.8385C124.954 82.0991 124.928 82.3336 124.876 82.5421C124.876 82.7506 124.876 82.9591 124.876 83.1675C124.876 83.376 124.85 83.5845 124.798 83.793C124.798 83.9493 124.798 84.1057 124.798 84.262C124.798 84.5226 124.771 84.679 124.719 84.7311V85.2001C124.667 85.2001 124.641 85.2523 124.641 85.3565V85.5129C124.641 85.565 124.614 85.6171 124.562 85.6692C124.562 85.6692 124.562 85.6953 124.562 85.7474C124.562 85.7995 124.536 85.8516 124.484 85.9037L124.641 85.7474C124.641 85.6953 124.641 85.6692 124.641 85.6692C124.693 85.6171 124.719 85.565 124.719 85.5129C124.771 85.5129 124.798 85.4607 124.798 85.3565C124.85 85.3565 124.876 85.3044 124.876 85.2001C124.928 85.2001 124.954 85.148 124.954 85.0438C125.007 84.9917 125.033 84.9135 125.033 84.8093C125.137 84.705 125.19 84.5747 125.19 84.4184C125.294 84.1057 125.347 83.9232 125.347 83.8711Z" fill="#666360"/>
<path d="M158.782 114.908C158.991 115.794 159.226 116.445 159.488 116.862C159.749 117.279 160.011 117.618 160.272 117.878C160.534 118.139 160.769 118.374 160.978 118.582C161.187 118.79 161.344 119.129 161.449 119.598H157.291C156.925 119.598 156.585 119.468 156.272 119.207C156.01 118.947 155.853 118.634 155.801 118.269C155.853 118.634 155.775 118.947 155.566 119.207C155.357 119.468 155.095 119.598 154.781 119.598H150.624C150.519 119.129 150.545 118.79 150.702 118.582C150.859 118.374 151.016 118.165 151.173 117.957C151.33 117.696 151.461 117.357 151.565 116.94C151.67 116.471 151.644 115.768 151.487 114.829V114.751L149.761 105.917C149.656 105.396 149.369 104.953 148.898 104.588C148.427 104.171 147.905 103.963 147.329 103.963H141.917C141.342 103.963 140.819 104.171 140.348 104.588C139.877 104.953 139.59 105.396 139.485 105.917L137.838 114.751V114.829C137.681 115.768 137.629 116.471 137.681 116.94C137.786 117.357 137.916 117.696 138.073 117.957C138.282 118.165 138.439 118.374 138.544 118.582C138.701 118.79 138.753 119.129 138.701 119.598H134.543C134.177 119.598 133.89 119.468 133.68 119.207C133.471 118.947 133.393 118.634 133.445 118.269C133.393 118.634 133.236 118.947 132.974 119.207C132.713 119.468 132.399 119.598 132.033 119.598H127.876C127.928 119.129 128.059 118.79 128.268 118.582C128.477 118.374 128.712 118.139 128.974 117.878C129.235 117.618 129.497 117.279 129.758 116.862C130.02 116.445 130.255 115.794 130.464 114.908L133.994 95.9105C134.099 95.1808 134.02 94.5033 133.759 93.8779C133.497 93.2524 133.079 92.7573 132.504 92.3925C133.341 92.0277 134.099 91.8453 134.779 91.8453L139.014 69.5646C139.171 68.6786 139.198 68.0271 139.093 67.6102C138.988 67.1411 138.858 66.8023 138.701 66.5939C138.544 66.3333 138.387 66.0987 138.23 65.8903C138.073 65.6818 138.047 65.343 138.152 64.874H143.407C144.192 64.9782 144.584 65.4212 144.584 66.203C144.584 65.8381 144.688 65.5515 144.898 65.343C145.159 65.0824 145.447 64.9261 145.76 64.874H151.095C151.199 65.343 151.173 65.6818 151.016 65.8903C150.911 66.0987 150.781 66.3333 150.624 66.5939C150.467 66.8023 150.336 67.1411 150.232 67.6102C150.127 68.0271 150.153 68.6786 150.31 69.5646L154.468 91.8453C154.886 91.8453 155.278 91.8974 155.644 92.0016C156.01 92.1058 156.376 92.2361 156.742 92.3925C155.592 93.1222 155.095 94.2948 155.252 95.9105L158.782 114.908ZM139.956 86.9201C140.06 86.6073 140.113 86.3207 140.113 86.0601C140.165 85.7474 140.217 85.4607 140.27 85.2001C140.531 84.0014 140.74 82.8809 140.897 81.8385C141.054 80.744 141.211 79.7538 141.368 78.8678C141.472 78.4508 141.525 78.0339 141.525 77.6169C141.577 77.2 141.629 76.783 141.681 76.3661C141.734 76.0012 141.786 75.6625 141.838 75.3498C141.891 75.0371 141.943 74.7504 141.995 74.4898C142.048 74.2292 142.074 73.9947 142.074 73.7862C142.074 73.5256 142.1 73.3171 142.152 73.1608V72.8481L142.074 73.1608C142.021 73.3171 141.969 73.4996 141.917 73.708C141.865 73.9165 141.812 74.151 141.76 74.4116C141.655 74.6722 141.577 74.9849 141.525 75.3498C141.472 75.6625 141.394 75.9752 141.289 76.2879C141.185 76.7048 141.08 77.1218 140.976 77.5387C140.923 77.9557 140.845 78.3726 140.74 78.7896C140.479 79.6756 140.217 80.6398 139.956 81.6822C139.747 82.6724 139.511 83.7669 139.25 84.9656C139.25 85.2783 139.224 85.565 139.171 85.8256C139.119 86.0862 139.041 86.3728 138.936 86.6855C138.884 86.9982 138.831 87.3109 138.779 87.6237C138.727 87.8843 138.675 88.1709 138.622 88.4836C138.465 89.0569 138.308 89.6563 138.152 90.2817C138.047 90.9071 137.942 91.5325 137.838 92.158C137.733 92.7313 137.603 93.3306 137.446 93.956C137.341 94.5815 137.236 95.1808 137.132 95.7541C137.08 95.9105 137.053 96.0668 137.053 96.2232C137.053 96.3274 137.027 96.4577 136.975 96.6141C136.87 97.031 136.818 97.3437 136.818 97.5522C136.661 98.0734 136.557 98.6467 136.504 99.2721C136.4 99.8454 136.295 100.419 136.191 100.992C136.086 101.565 136.008 102.087 135.955 102.556C135.798 103.754 135.641 104.745 135.485 105.526C135.38 105.943 135.302 106.36 135.249 106.777C135.197 107.194 135.145 107.611 135.092 108.028C134.988 108.393 134.909 108.758 134.857 109.123C134.857 109.435 134.831 109.722 134.779 109.982C134.726 110.243 134.7 110.478 134.7 110.686C134.7 110.895 134.674 111.077 134.622 111.233C134.622 111.338 134.596 111.416 134.543 111.468C134.543 111.468 134.543 111.494 134.543 111.546V111.624C134.596 111.624 134.622 111.598 134.622 111.546C134.622 111.442 134.648 111.338 134.7 111.233C134.752 111.129 134.779 110.973 134.779 110.764C134.831 110.504 134.909 110.243 135.014 109.982C135.119 109.722 135.197 109.435 135.249 109.123C135.354 108.81 135.458 108.471 135.563 108.106C135.668 107.741 135.746 107.35 135.798 106.934C135.903 106.517 135.981 106.1 136.034 105.683C136.138 105.266 136.243 104.823 136.347 104.354C136.504 103.832 136.635 103.311 136.74 102.79C136.844 102.269 136.949 101.722 137.053 101.148C137.21 100.575 137.367 100.002 137.524 99.4285C137.576 99.1679 137.629 98.9073 137.681 98.6467C137.733 98.334 137.786 98.0473 137.838 97.7868L138.073 96.8486C138.125 96.6923 138.152 96.5359 138.152 96.3796C138.152 96.2232 138.178 96.0668 138.23 95.9105C138.335 95.3372 138.465 94.7639 138.622 94.1906C138.779 93.5652 138.91 92.9397 139.014 92.3143C139.119 91.741 139.224 91.1417 139.328 90.5162C139.433 89.8908 139.537 89.2914 139.642 88.7181C139.694 88.4054 139.747 88.0927 139.799 87.78C139.851 87.4673 139.903 87.1807 139.956 86.9201ZM146.623 100.288C147.199 100.236 147.643 100.028 147.957 99.663C148.323 99.2461 148.454 98.7509 148.349 98.1776L147.878 95.9105C147.669 95.1808 147.303 94.5033 146.78 93.8779C146.31 93.2524 145.734 92.7573 145.054 92.3925C145.682 92.0277 146.362 91.8453 147.094 91.8453L144.584 78.4769L142.074 91.8453C142.754 91.8453 143.46 92.0277 144.192 92.3925C143.46 92.7573 142.832 93.2524 142.309 93.8779C141.838 94.5033 141.525 95.1808 141.368 95.9105L140.976 98.1776C140.871 98.7509 140.976 99.2461 141.289 99.663C141.603 100.028 142.021 100.236 142.544 100.288H146.623ZM154.546 111.233C154.546 111.338 154.546 111.416 154.546 111.468C154.598 111.468 154.624 111.494 154.624 111.546V111.233C154.572 111.077 154.546 110.895 154.546 110.686C154.546 110.478 154.52 110.243 154.468 109.982C154.415 109.722 154.363 109.435 154.311 109.123C154.311 108.758 154.258 108.393 154.154 108.028C154.101 107.611 154.049 107.194 153.997 106.777C153.945 106.36 153.866 105.943 153.762 105.526C153.605 104.745 153.448 103.754 153.291 102.556C153.186 102.087 153.082 101.565 152.977 100.992C152.925 100.419 152.846 99.8454 152.742 99.2721C152.637 98.9594 152.559 98.6728 152.506 98.4122C152.506 98.1516 152.454 97.8649 152.35 97.5522C152.35 97.3437 152.297 97.031 152.193 96.6141C152.193 96.4577 152.167 96.3274 152.114 96.2232C152.114 96.0668 152.114 95.9105 152.114 95.7541C152.01 95.1808 151.879 94.5815 151.722 93.956C151.617 93.3306 151.513 92.7313 151.408 92.158C151.304 91.5325 151.173 90.9071 151.016 90.2817C150.911 89.6563 150.781 89.0569 150.624 88.4836C150.572 88.1709 150.519 87.8843 150.467 87.6237C150.415 87.3109 150.362 86.9982 150.31 86.6855C150.205 86.3728 150.127 86.0862 150.075 85.8256C150.022 85.565 149.97 85.2783 149.918 84.9656C149.656 83.7669 149.395 82.6724 149.133 81.6822C148.924 80.6398 148.741 79.6756 148.584 78.7896C148.48 78.3726 148.375 77.9557 148.271 77.5387C148.166 77.1218 148.061 76.7048 147.957 76.2879C147.852 75.9752 147.748 75.6625 147.643 75.3498C147.591 74.9849 147.512 74.6722 147.408 74.4116C147.355 74.151 147.303 73.9165 147.251 73.708C147.199 73.4996 147.146 73.3171 147.094 73.1608L147.016 72.8481V73.1608C147.068 73.4214 147.146 73.8644 147.251 74.4898C147.251 74.7504 147.277 75.0371 147.329 75.3498C147.382 75.6625 147.434 76.0012 147.486 76.3661C147.538 76.783 147.591 77.2 147.643 77.6169C147.695 78.0339 147.774 78.4508 147.878 78.8678C148.035 79.7538 148.192 80.744 148.349 81.8385C148.506 82.8809 148.689 84.0014 148.898 85.2001C148.95 85.4607 148.977 85.7474 148.977 86.0601C149.029 86.3207 149.107 86.6073 149.212 86.9201C149.264 87.1807 149.316 87.4673 149.369 87.78C149.421 88.0927 149.473 88.4054 149.526 88.7181C149.63 89.2914 149.735 89.8908 149.839 90.5162C149.996 91.1417 150.127 91.741 150.232 92.3143C150.336 92.9397 150.467 93.5652 150.624 94.1906C150.781 94.7639 150.911 95.3372 151.016 95.9105C151.068 96.0668 151.095 96.2232 151.095 96.3796C151.095 96.5359 151.121 96.6923 151.173 96.8486L151.408 97.7868C151.461 98.0473 151.513 98.334 151.565 98.6467C151.617 98.9073 151.67 99.1679 151.722 99.4285C151.879 100.002 152.01 100.575 152.114 101.148C152.219 101.722 152.323 102.269 152.428 102.79C152.533 103.311 152.637 103.832 152.742 104.354C152.899 104.823 153.029 105.266 153.134 105.683C153.239 106.1 153.343 106.517 153.448 106.934C153.552 107.35 153.657 107.741 153.762 108.106C153.918 108.836 154.075 109.461 154.232 109.982C154.337 110.243 154.389 110.504 154.389 110.764C154.441 110.973 154.494 111.129 154.546 111.233Z" fill="#666360"/>
<path d="M191.694 122.882C192.269 122.986 192.661 123.168 192.87 123.429C193.132 123.69 193.315 123.95 193.419 124.211C193.524 124.524 193.576 124.862 193.576 125.227C191.903 125.227 190.334 125.019 188.87 124.602C187.405 124.185 186.098 123.507 184.948 122.569C183.849 121.631 182.96 120.406 182.281 118.895C181.653 117.383 181.339 115.533 181.339 113.344V102.634C181.339 101.956 181.313 101.122 181.261 100.132C181.209 99.1418 181.026 98.2037 180.712 97.3177C180.398 96.4317 179.901 95.676 179.221 95.0505C178.594 94.373 177.653 94.0342 176.397 94.0342H173.181C172.711 94.1385 172.292 94.3991 171.926 94.816C171.613 95.1808 171.456 95.6238 171.456 96.145V114.829C171.456 115.768 171.534 116.471 171.691 116.94C171.9 117.357 172.109 117.696 172.319 117.957C172.528 118.165 172.711 118.374 172.868 118.582C173.077 118.79 173.181 119.129 173.181 119.598H169.024C168.71 119.598 168.423 119.468 168.161 119.207C167.9 118.947 167.769 118.66 167.769 118.347C167.769 118.66 167.638 118.947 167.377 119.207C167.168 119.468 166.88 119.598 166.514 119.598H162.435C162.435 119.129 162.513 118.79 162.67 118.582C162.879 118.374 163.089 118.165 163.298 117.957C163.507 117.696 163.69 117.357 163.847 116.94C164.056 116.523 164.161 115.872 164.161 114.986V95.9105C164.004 94.2948 163.272 93.1222 161.964 92.3925C162.539 92.0277 163.272 91.8453 164.161 91.8453V69.4864C164.161 68.6004 164.056 67.9489 163.847 67.532C163.69 67.115 163.507 66.8023 163.298 66.5939C163.089 66.3333 162.879 66.0987 162.67 65.8903C162.513 65.6818 162.435 65.343 162.435 64.874H166.592C166.906 64.874 167.194 65.0042 167.455 65.2648C167.717 65.4733 167.847 65.76 167.847 66.1248C167.847 65.2909 168.266 64.874 169.102 64.874H176.476C178.149 64.874 179.718 65.1867 181.182 65.8121C182.647 66.4375 183.928 67.2975 185.026 68.3919C186.124 69.4343 186.987 70.6852 187.615 72.1445C188.242 73.6038 188.582 75.1413 188.634 76.757V81.8385C188.634 84.0275 188.111 86.034 187.066 87.8582C186.02 89.6823 184.608 91.1417 182.83 92.2361C184.608 93.2785 186.02 94.7378 187.066 96.6141C188.111 98.4382 188.634 100.445 188.634 102.634V113.031C188.634 114.126 188.634 115.246 188.634 116.393C188.687 117.488 188.817 118.504 189.027 119.442C189.236 120.328 189.55 121.084 189.968 121.709C190.386 122.335 190.962 122.725 191.694 122.882ZM184.555 80.5095C184.503 80.6137 184.477 80.744 184.477 80.9004V82.6985C184.425 82.9069 184.399 83.1154 184.399 83.3239C184.399 83.4802 184.399 83.6366 184.399 83.793C184.399 83.8972 184.372 83.9754 184.32 84.0275C184.32 84.0796 184.32 84.1578 184.32 84.262V84.7311C184.268 84.8353 184.242 84.9656 184.242 85.122C184.242 85.2262 184.216 85.3304 184.163 85.4347C184.163 85.5389 184.137 85.6171 184.085 85.6692V85.8256L184.006 85.9819C184.006 85.9819 184.059 85.9559 184.163 85.9037V85.8256L184.242 85.7474C184.294 85.6953 184.32 85.6692 184.32 85.6692C184.32 85.6171 184.346 85.565 184.399 85.5129C184.451 85.4086 184.503 85.3044 184.555 85.2001C184.608 85.0438 184.66 84.9135 184.712 84.8093C184.765 84.705 184.791 84.6529 184.791 84.6529C184.791 84.6008 184.817 84.5226 184.869 84.4184C184.921 84.3141 184.948 84.236 184.948 84.1838C184.948 84.0796 184.974 83.9754 185.026 83.8711C185.078 83.7669 185.105 83.6887 185.105 83.6366C185.105 83.5845 185.131 83.5063 185.183 83.4021C185.183 83.2978 185.183 83.2196 185.183 83.1675C185.235 83.0633 185.261 82.9591 185.261 82.8548C185.314 82.6463 185.34 82.4379 185.34 82.2294C185.392 82.0209 185.444 81.8125 185.497 81.604C185.549 81.4476 185.575 81.2131 185.575 80.9004C185.575 80.7961 185.575 80.6919 185.575 80.5877C185.627 80.4834 185.654 80.3792 185.654 80.275V77.5387C185.654 77.226 185.627 76.9915 185.575 76.8351V76.5224C185.575 76.4182 185.549 76.3661 185.497 76.3661C185.497 76.314 185.497 76.2358 185.497 76.1315C185.497 75.8709 185.444 75.4801 185.34 74.9589C185.288 74.8546 185.261 74.7504 185.261 74.6462C185.261 74.5419 185.235 74.4377 185.183 74.3335C185.183 74.2813 185.157 74.2553 185.105 74.2553C185.105 74.2032 185.105 74.151 185.105 74.0989C185.105 74.0468 185.078 74.0207 185.026 74.0207C185.026 73.9686 185.026 73.9165 185.026 73.8644C184.974 73.7602 184.948 73.682 184.948 73.6299C184.948 73.5777 184.921 73.4996 184.869 73.3953C184.817 73.2911 184.791 73.2129 184.791 73.1608C184.791 73.1087 184.765 73.0305 184.712 72.9263C184.66 72.8741 184.634 72.822 184.634 72.7699C184.634 72.7178 184.608 72.6657 184.555 72.6135C184.451 72.4051 184.399 72.3008 184.399 72.3008C184.346 72.2487 184.32 72.2227 184.32 72.2227C184.32 72.1705 184.294 72.1184 184.242 72.0663C184.189 72.0142 184.163 71.9621 184.163 71.9099C184.111 71.8578 184.085 71.8057 184.085 71.7536H184.006C184.006 71.7536 184.032 71.8057 184.085 71.9099V72.0663C184.137 72.1184 184.163 72.2227 184.163 72.379C184.163 72.4311 184.163 72.4832 184.163 72.5354C184.216 72.5354 184.242 72.5875 184.242 72.6917C184.242 72.8481 184.268 72.9784 184.32 73.0826V73.4735C184.32 73.5777 184.32 73.6559 184.32 73.708C184.372 73.7602 184.399 73.8383 184.399 73.9426C184.399 74.4116 184.425 74.7765 184.477 75.0371V76.2879C184.529 76.5485 184.555 76.9654 184.555 77.5387V80.5095ZM168.396 88.5618C168.396 88.3012 168.37 88.0145 168.318 87.7018C168.318 87.3891 168.318 87.0764 168.318 86.7637V85.0438C168.266 83.8972 168.24 82.8027 168.24 81.7603C168.24 80.718 168.213 79.7277 168.161 78.7896C168.109 78.3726 168.083 77.9557 168.083 77.5387C168.083 77.1218 168.057 76.7309 168.004 76.3661C168.004 75.9491 167.978 75.5843 167.926 75.2716C167.926 74.9589 167.926 74.6722 167.926 74.4116C167.926 74.151 167.9 73.9165 167.847 73.708C167.847 73.4996 167.847 73.3171 167.847 73.1608V72.7699C167.795 72.7699 167.769 72.796 167.769 72.8481V73.1608C167.769 73.3171 167.743 73.4996 167.69 73.708C167.69 73.9165 167.69 74.151 167.69 74.4116C167.69 74.6722 167.664 74.9589 167.612 75.2716C167.612 75.5843 167.612 75.9491 167.612 76.3661C167.56 76.7309 167.534 77.1218 167.534 77.5387C167.534 77.9557 167.507 78.3726 167.455 78.7896C167.403 79.7277 167.377 80.718 167.377 81.7603C167.377 82.8027 167.351 83.8972 167.298 85.0438V86.7637C167.298 87.0764 167.272 87.3891 167.22 87.7018C167.22 88.0145 167.22 88.3012 167.22 88.5618V95.8323C167.22 96.2493 167.246 96.562 167.298 96.7704V99.3503C167.298 99.9236 167.298 100.497 167.298 101.07C167.351 101.591 167.377 102.113 167.377 102.634C167.377 103.207 167.377 103.728 167.377 104.197C167.429 104.666 167.455 105.135 167.455 105.605C167.507 106.074 167.534 106.517 167.534 106.934C167.534 107.298 167.56 107.689 167.612 108.106C167.612 108.471 167.612 108.81 167.612 109.123C167.664 109.435 167.69 109.722 167.69 109.982C167.69 110.243 167.69 110.504 167.69 110.764C167.743 110.973 167.769 111.129 167.769 111.233V111.624C167.769 111.676 167.795 111.702 167.847 111.702V111.233C167.847 111.129 167.847 110.973 167.847 110.764C167.9 110.504 167.926 110.243 167.926 109.982C167.926 109.722 167.926 109.435 167.926 109.123C167.978 108.81 168.004 108.471 168.004 108.106C168.057 107.689 168.083 107.298 168.083 106.934C168.083 106.517 168.109 106.074 168.161 105.605C168.161 105.135 168.161 104.666 168.161 104.197C168.213 103.728 168.24 103.207 168.24 102.634C168.24 102.113 168.24 101.591 168.24 101.07C168.292 100.497 168.318 99.9236 168.318 99.3503V97.6304C168.318 97.2135 168.344 96.9268 168.396 96.7704V88.5618ZM181.339 77.0697C181.339 76.3921 181.313 75.5582 181.261 74.568C181.209 73.5777 181.026 72.6396 180.712 71.7536C180.398 70.8676 179.901 70.1119 179.221 69.4864C178.594 68.8089 177.653 68.4701 176.397 68.4701H173.574C172.998 68.5222 172.502 68.7568 172.083 69.1737C171.665 69.5907 171.456 70.0858 171.456 70.6591V88.2491C171.456 88.8224 171.665 89.3175 172.083 89.7345C172.502 90.1514 172.998 90.3599 173.574 90.3599H176.397C177.653 90.3599 178.594 90.0472 179.221 89.4217C179.901 88.7963 180.398 88.0406 180.712 87.1546C181.026 86.2165 181.209 85.2783 181.261 84.3402C181.313 83.3499 181.339 82.516 181.339 81.8385V77.0697ZM186.595 119.911C186.595 119.911 186.569 119.885 186.516 119.833L186.438 119.755C186.386 119.65 186.333 119.546 186.281 119.442C186.281 119.338 186.229 119.233 186.124 119.129C186.072 118.973 186.02 118.817 185.967 118.66C185.915 118.452 185.863 118.217 185.811 117.957C185.706 117.435 185.654 116.94 185.654 116.471C185.601 116.211 185.575 115.95 185.575 115.689C185.575 115.377 185.575 115.038 185.575 114.673V110.53C185.575 110.165 185.575 109.8 185.575 109.435C185.575 109.07 185.601 108.68 185.654 108.263C185.654 107.898 185.654 107.533 185.654 107.168C185.654 106.803 185.627 106.438 185.575 106.074V104.979C185.575 104.458 185.549 104.093 185.497 103.885C185.497 103.52 185.471 103.181 185.418 102.868C185.418 102.503 185.392 102.165 185.34 101.852C185.235 101.122 185.131 100.497 185.026 99.9757C184.974 99.7151 184.921 99.4806 184.869 99.2721C184.817 99.0115 184.738 98.7509 184.634 98.4904C184.529 98.2298 184.451 98.0213 184.399 97.8649C184.346 97.7086 184.268 97.5522 184.163 97.3959C184.059 97.2395 183.98 97.1092 183.928 97.005C183.876 96.9007 183.823 96.7965 183.771 96.6923C183.719 96.6923 183.666 96.6662 183.614 96.6141C183.562 96.6141 183.536 96.588 183.536 96.5359L183.614 96.6141C183.614 96.6662 183.64 96.7183 183.693 96.7704C183.693 96.8226 183.693 96.8747 183.693 96.9268C183.745 96.9268 183.771 96.9789 183.771 97.0832C183.823 97.1353 183.849 97.1874 183.849 97.2395C183.849 97.2916 183.876 97.3698 183.928 97.474C183.98 97.6825 184.059 98.0473 184.163 98.5685C184.216 98.8291 184.242 99.0897 184.242 99.3503C184.294 99.6109 184.346 99.8715 184.399 100.132C184.399 100.393 184.399 100.679 184.399 100.992C184.451 101.253 184.477 101.565 184.477 101.93V111.624C184.477 111.833 184.477 112.015 184.477 112.171C184.529 112.328 184.555 112.51 184.555 112.719C184.555 113.084 184.555 113.448 184.555 113.813C184.608 114.126 184.66 114.439 184.712 114.751C184.765 115.064 184.791 115.377 184.791 115.689C184.843 116.002 184.895 116.289 184.948 116.549C185.052 116.862 185.131 117.149 185.183 117.409C185.235 117.618 185.314 117.852 185.418 118.113C185.523 118.374 185.601 118.582 185.654 118.738C185.706 118.895 185.784 119.051 185.889 119.207L186.046 119.364C186.098 119.416 186.124 119.468 186.124 119.52C186.124 119.52 186.15 119.546 186.203 119.598L186.516 119.911H186.595Z" fill="#666360"/>
<path d="M215.214 81.8385C215.214 84.0275 214.691 86.034 213.645 87.8582C212.599 89.6823 211.187 91.1417 209.409 92.2361C211.187 93.2785 212.599 94.7378 213.645 96.6141C214.691 98.4382 215.214 100.445 215.214 102.634V107.715C215.162 109.383 214.822 110.947 214.194 112.406C213.567 113.813 212.704 115.064 211.606 116.159C210.507 117.201 209.226 118.035 207.762 118.66C206.298 119.286 204.729 119.598 203.055 119.598H195.603C195.29 119.598 195.002 119.468 194.741 119.207C194.479 118.947 194.348 118.66 194.348 118.347C194.348 118.66 194.218 118.947 193.956 119.207C193.747 119.468 193.459 119.598 193.093 119.598H189.014C189.014 119.129 189.093 118.79 189.25 118.582C189.459 118.374 189.668 118.165 189.877 117.957C190.086 117.696 190.269 117.357 190.426 116.94C190.635 116.523 190.74 115.872 190.74 114.986V95.9105C190.583 94.2948 189.851 93.1222 188.544 92.3925C189.119 92.0277 189.851 91.8453 190.74 91.8453V69.4864C190.74 68.6004 190.635 67.9489 190.426 67.532C190.269 67.115 190.086 66.8023 189.877 66.5939C189.668 66.3333 189.459 66.0987 189.25 65.8903C189.093 65.6818 189.014 65.343 189.014 64.874H193.172C193.486 64.874 193.773 65.0042 194.035 65.2648C194.296 65.4733 194.427 65.76 194.427 66.1248C194.427 65.2909 194.845 64.874 195.682 64.874H203.055C204.729 64.874 206.298 65.1867 207.762 65.8121C209.226 66.4375 210.507 67.2975 211.606 68.3919C212.704 69.4343 213.567 70.6852 214.194 72.1445C214.822 73.6038 215.162 75.1413 215.214 76.757V81.8385ZM194.976 88.5618C194.976 88.3012 194.95 88.0145 194.897 87.7018C194.897 87.3891 194.897 87.0764 194.897 86.7637V85.0438C194.845 83.8972 194.819 82.8027 194.819 81.7603C194.819 80.718 194.793 79.7277 194.741 78.7896C194.688 78.3726 194.662 77.9557 194.662 77.5387C194.662 77.1218 194.636 76.7309 194.584 76.3661C194.584 75.9491 194.558 75.5843 194.505 75.2716C194.505 74.9589 194.505 74.6722 194.505 74.4116C194.505 74.151 194.479 73.9165 194.427 73.708C194.427 73.4996 194.427 73.3171 194.427 73.1608V72.7699C194.375 72.7699 194.348 72.796 194.348 72.8481V73.1608C194.348 73.3171 194.322 73.4996 194.27 73.708C194.27 73.9165 194.27 74.151 194.27 74.4116C194.27 74.6722 194.244 74.9589 194.192 75.2716C194.192 75.5843 194.192 75.9491 194.192 76.3661C194.139 76.7309 194.113 77.1218 194.113 77.5387C194.113 77.9557 194.087 78.3726 194.035 78.7896C193.982 79.7277 193.956 80.718 193.956 81.7603C193.956 82.8027 193.93 83.8972 193.878 85.0438V86.7637C193.878 87.0764 193.852 87.3891 193.799 87.7018C193.799 88.0145 193.799 88.3012 193.799 88.5618V95.8323C193.799 96.2493 193.825 96.562 193.878 96.7704V99.3503C193.878 99.9236 193.878 100.497 193.878 101.07C193.93 101.591 193.956 102.113 193.956 102.634C193.956 103.207 193.956 103.728 193.956 104.197C194.008 104.666 194.035 105.135 194.035 105.605C194.087 106.074 194.113 106.517 194.113 106.934C194.113 107.298 194.139 107.689 194.192 108.106C194.192 108.471 194.192 108.81 194.192 109.123C194.244 109.435 194.27 109.722 194.27 109.982C194.27 110.243 194.27 110.504 194.27 110.764C194.322 110.973 194.348 111.129 194.348 111.233V111.624C194.348 111.676 194.375 111.702 194.427 111.702V111.233C194.427 111.129 194.427 110.973 194.427 110.764C194.479 110.504 194.505 110.243 194.505 109.982C194.505 109.722 194.505 109.435 194.505 109.123C194.558 108.81 194.584 108.471 194.584 108.106C194.636 107.689 194.662 107.298 194.662 106.934C194.662 106.517 194.688 106.074 194.741 105.605C194.741 105.135 194.741 104.666 194.741 104.197C194.793 103.728 194.819 103.207 194.819 102.634C194.819 102.113 194.819 101.591 194.819 101.07C194.871 100.497 194.897 99.9236 194.897 99.3503V97.6304C194.897 97.2135 194.924 96.9268 194.976 96.7704V88.5618ZM211.135 106.699C211.083 106.803 211.056 106.934 211.056 107.09V108.888C211.004 109.096 210.978 109.305 210.978 109.513C210.978 109.67 210.978 109.826 210.978 109.982C210.978 110.087 210.952 110.165 210.9 110.217C210.9 110.269 210.9 110.347 210.9 110.452V110.921C210.847 111.025 210.821 111.155 210.821 111.311C210.821 111.416 210.795 111.52 210.743 111.624C210.743 111.728 210.717 111.807 210.664 111.859V112.015L210.586 112.171C210.586 112.171 210.638 112.145 210.743 112.093V112.015L210.821 111.937C210.873 111.885 210.9 111.859 210.9 111.859C210.9 111.807 210.926 111.754 210.978 111.702C211.03 111.598 211.083 111.494 211.135 111.39C211.187 111.233 211.24 111.103 211.292 110.999C211.344 110.895 211.37 110.842 211.37 110.842C211.37 110.79 211.396 110.712 211.449 110.608C211.501 110.504 211.527 110.425 211.527 110.373C211.527 110.321 211.553 110.243 211.606 110.139C211.658 110.035 211.684 109.956 211.684 109.904C211.684 109.8 211.71 109.696 211.762 109.592C211.762 109.487 211.762 109.409 211.762 109.357C211.815 109.253 211.841 109.149 211.841 109.044C211.893 108.836 211.919 108.627 211.919 108.419C211.972 108.21 212.024 108.002 212.076 107.793C212.129 107.637 212.155 107.403 212.155 107.09C212.155 106.986 212.155 106.881 212.155 106.777C212.207 106.673 212.233 106.569 212.233 106.464V103.728C212.233 103.416 212.207 103.181 212.155 103.025V102.712C212.155 102.608 212.129 102.556 212.076 102.556C212.076 102.503 212.076 102.451 212.076 102.399C212.076 102.139 212.05 101.93 211.998 101.774C211.998 101.565 211.972 101.357 211.919 101.148C211.867 101.044 211.841 100.94 211.841 100.836C211.841 100.731 211.815 100.627 211.762 100.523C211.762 100.471 211.736 100.445 211.684 100.445C211.684 100.393 211.684 100.341 211.684 100.288C211.684 100.236 211.658 100.21 211.606 100.21C211.606 100.158 211.606 100.106 211.606 100.054C211.553 99.9497 211.527 99.8715 211.527 99.8194C211.527 99.7673 211.501 99.6891 211.449 99.5848C211.396 99.4806 211.37 99.4024 211.37 99.3503C211.37 99.2982 211.344 99.22 211.292 99.1158C211.24 99.0637 211.213 99.0115 211.213 98.9594C211.213 98.9073 211.187 98.8552 211.135 98.8031C211.03 98.5946 210.978 98.4904 210.978 98.4904C210.926 98.4382 210.9 98.4122 210.9 98.4122C210.9 98.3601 210.873 98.3079 210.821 98.2558C210.769 98.2037 210.743 98.1516 210.743 98.0995L210.586 97.9431C210.586 97.9431 210.612 97.9952 210.664 98.0995V98.2558C210.717 98.3079 210.743 98.4122 210.743 98.5685C210.743 98.6207 210.743 98.6728 210.743 98.7249C210.795 98.7249 210.821 98.777 210.821 98.8812C210.821 99.0376 210.847 99.1679 210.9 99.2721V99.663C210.9 99.7673 210.9 99.8454 210.9 99.8976C210.952 99.9497 210.978 100.028 210.978 100.132C210.978 100.601 211.004 100.966 211.056 101.227V102.477C211.109 102.738 211.135 103.155 211.135 103.728V106.699ZM207.919 102.634C207.919 101.956 207.893 101.122 207.84 100.132C207.788 99.1418 207.605 98.2037 207.291 97.3177C206.978 96.4317 206.481 95.676 205.801 95.0505C205.173 94.373 204.232 94.0342 202.977 94.0342H200.153C199.578 94.0863 199.081 94.3209 198.663 94.7378C198.244 95.1548 198.035 95.6499 198.035 96.2232V113.813C198.035 114.386 198.244 114.882 198.663 115.299C199.081 115.716 199.578 115.924 200.153 115.924H202.977C204.232 115.924 205.173 115.611 205.801 114.986C206.481 114.36 206.978 113.605 207.291 112.719C207.605 111.781 207.788 110.842 207.84 109.904C207.893 108.914 207.919 108.08 207.919 107.403V102.634ZM207.919 77.0697C207.919 76.3921 207.893 75.5582 207.84 74.568C207.788 73.5777 207.605 72.6396 207.291 71.7536C206.978 70.8676 206.481 70.1119 205.801 69.4864C205.173 68.8089 204.232 68.4701 202.977 68.4701H200.153C199.578 68.5222 199.081 68.7568 198.663 69.1737C198.244 69.5907 198.035 70.0858 198.035 70.6591V88.2491C198.035 88.8224 198.244 89.3175 198.663 89.7345C199.081 90.1514 199.578 90.3599 200.153 90.3599H202.977C204.232 90.3599 205.173 90.0472 205.801 89.4217C206.481 88.7963 206.978 88.0406 207.291 87.1546C207.605 86.2165 207.788 85.2783 207.84 84.3402C207.893 83.3499 207.919 82.516 207.919 81.8385V77.0697ZM211.292 84.8093C211.344 84.705 211.37 84.6529 211.37 84.6529C211.37 84.6008 211.396 84.5226 211.449 84.4184C211.501 84.3141 211.527 84.236 211.527 84.1838C211.527 84.0796 211.553 83.9754 211.606 83.8711C211.658 83.7669 211.684 83.6887 211.684 83.6366C211.684 83.5845 211.71 83.5063 211.762 83.4021C211.762 83.2978 211.762 83.2196 211.762 83.1675C211.815 83.0633 211.841 82.9591 211.841 82.8548C211.893 82.6463 211.919 82.4379 211.919 82.2294C211.972 82.0209 212.024 81.8125 212.076 81.604C212.129 81.4476 212.155 81.2131 212.155 80.9004C212.155 80.7961 212.155 80.6919 212.155 80.5877C212.207 80.4834 212.233 80.3792 212.233 80.275V77.5387C212.233 77.226 212.207 76.9915 212.155 76.8351V76.5224C212.155 76.4182 212.129 76.3661 212.076 76.3661C212.076 76.314 212.076 76.2358 212.076 76.1315C212.076 75.8709 212.024 75.4801 211.919 74.9589C211.867 74.8546 211.841 74.7504 211.841 74.6462C211.841 74.5419 211.815 74.4377 211.762 74.3335C211.762 74.2813 211.736 74.2553 211.684 74.2553C211.684 74.2032 211.684 74.151 211.684 74.0989C211.684 74.0468 211.658 74.0207 211.606 74.0207C211.606 73.9686 211.606 73.9165 211.606 73.8644C211.553 73.7602 211.527 73.682 211.527 73.6299C211.527 73.5777 211.501 73.4996 211.449 73.3953C211.396 73.2911 211.37 73.2129 211.37 73.1608C211.37 73.1087 211.344 73.0305 211.292 72.9263C211.24 72.8741 211.213 72.822 211.213 72.7699C211.213 72.7178 211.187 72.6657 211.135 72.6135C211.03 72.4051 210.978 72.3008 210.978 72.3008C210.926 72.2487 210.9 72.2227 210.9 72.2227C210.9 72.1705 210.873 72.1184 210.821 72.0663C210.769 72.0142 210.743 71.9621 210.743 71.9099C210.69 71.8578 210.664 71.8057 210.664 71.7536H210.586C210.586 71.7536 210.612 71.8057 210.664 71.9099V72.0663C210.717 72.1184 210.743 72.2227 210.743 72.379C210.743 72.4311 210.743 72.4832 210.743 72.5354C210.795 72.5354 210.821 72.5875 210.821 72.6917C210.821 72.8481 210.847 72.9784 210.9 73.0826V73.4735C210.9 73.5777 210.9 73.6559 210.9 73.708C210.952 73.7602 210.978 73.8383 210.978 73.9426C210.978 74.4116 211.004 74.7765 211.056 75.0371V76.2879C211.109 76.5485 211.135 76.9654 211.135 77.5387V80.5095C211.083 80.6137 211.056 80.744 211.056 80.9004V82.6985C211.004 82.9069 210.978 83.1154 210.978 83.3239C210.978 83.4802 210.978 83.6366 210.978 83.793C210.978 83.8972 210.952 83.9754 210.9 84.0275C210.9 84.0796 210.9 84.1578 210.9 84.262V84.7311C210.847 84.8353 210.821 84.9656 210.821 85.122C210.821 85.2262 210.795 85.3304 210.743 85.4347C210.743 85.5389 210.717 85.6171 210.664 85.6692V85.8256L210.586 85.9819C210.586 85.9819 210.638 85.9559 210.743 85.9037V85.8256L210.821 85.7474C210.873 85.6953 210.9 85.6692 210.9 85.6692C210.9 85.6171 210.926 85.565 210.978 85.5129C211.03 85.4086 211.083 85.3044 211.135 85.2001C211.187 85.0438 211.24 84.9135 211.292 84.8093Z" fill="#666360"/>
<path d="M241.95 114.829C241.95 115.768 242.029 116.471 242.186 116.94C242.395 117.357 242.604 117.696 242.813 117.957C243.022 118.165 243.205 118.374 243.362 118.582C243.571 118.79 243.676 119.129 243.676 119.598H222.34C222.026 119.598 221.738 119.468 221.477 119.207C221.216 118.947 221.085 118.66 221.085 118.347C221.085 118.66 220.954 118.947 220.693 119.207C220.483 119.468 220.196 119.598 219.83 119.598H215.751C215.751 119.129 215.829 118.79 215.986 118.582C216.195 118.374 216.404 118.165 216.614 117.957C216.823 117.696 217.006 117.357 217.163 116.94C217.372 116.523 217.476 115.872 217.476 114.986V95.9105C217.32 94.2948 216.587 93.1222 215.28 92.3925C215.855 92.0277 216.587 91.8453 217.476 91.8453V69.4864C217.476 68.6004 217.372 67.9489 217.163 67.532C217.006 67.115 216.823 66.8023 216.614 66.5939C216.404 66.3333 216.195 66.0987 215.986 65.8903C215.829 65.6818 215.751 65.343 215.751 64.874H219.908C220.222 64.874 220.51 65.0042 220.771 65.2648C221.032 65.4733 221.163 65.76 221.163 66.1248C221.163 65.2909 221.582 64.874 222.418 64.874H243.676C243.676 65.343 243.571 65.6818 243.362 65.8903C243.205 66.0987 243.022 66.3333 242.813 66.5939C242.604 66.8023 242.395 67.1411 242.186 67.6102C242.029 68.0271 241.95 68.7047 241.95 69.6428V80.0404C240.12 80.0404 238.708 79.7017 237.714 79.0241C236.773 78.2945 236.067 77.4866 235.597 76.6006C235.021 75.6104 234.708 74.4377 234.655 73.0826V70.6591C234.655 70.0858 234.446 69.5907 234.028 69.1737C233.609 68.7568 233.113 68.5222 232.537 68.4701H226.889C226.314 68.5222 225.817 68.7568 225.399 69.1737C224.981 69.5907 224.772 70.0858 224.772 70.6591V88.2491C224.772 88.8224 224.981 89.3175 225.399 89.7345C225.817 90.1514 226.314 90.3599 226.889 90.3599H227.439C228.014 90.3599 228.484 90.1514 228.851 89.7345C229.269 89.3175 229.478 88.8224 229.478 88.2491V88.1709C229.53 87.3891 229.74 86.7116 230.106 86.1383C230.419 85.6171 230.89 85.148 231.518 84.7311C232.145 84.3141 233.06 84.1057 234.263 84.1057V100.288C233.06 100.288 232.145 100.08 231.518 99.663C230.89 99.2461 230.419 98.777 230.106 98.2558C229.74 97.6825 229.53 97.005 229.478 96.2232C229.478 95.6499 229.269 95.1548 228.851 94.7378C228.484 94.3209 228.014 94.0863 227.439 94.0342H226.889C226.314 94.0863 225.817 94.3209 225.399 94.7378C224.981 95.1548 224.772 95.6499 224.772 96.2232V113.813C224.772 114.386 224.981 114.882 225.399 115.299C225.817 115.716 226.314 115.924 226.889 115.924H232.537C233.113 115.924 233.609 115.716 234.028 115.299C234.446 114.882 234.655 114.386 234.655 113.813V111.311C234.708 110.009 235.021 108.862 235.597 107.872C236.067 106.986 236.773 106.178 237.714 105.448C238.708 104.719 240.12 104.354 241.95 104.354V114.829ZM221.712 88.5618C221.712 88.3012 221.686 88.0145 221.634 87.7018C221.634 87.3891 221.634 87.0764 221.634 86.7637V85.0438C221.582 83.8972 221.555 82.8027 221.555 81.7603C221.555 80.718 221.529 79.7277 221.477 78.7896C221.425 78.3726 221.399 77.9557 221.399 77.5387C221.399 77.1218 221.372 76.7309 221.32 76.3661C221.32 75.9491 221.294 75.5843 221.242 75.2716C221.242 74.9589 221.242 74.6722 221.242 74.4116C221.242 74.151 221.216 73.9165 221.163 73.708C221.163 73.4996 221.163 73.3171 221.163 73.1608V72.7699C221.111 72.7699 221.085 72.796 221.085 72.8481V73.1608C221.085 73.3171 221.059 73.4996 221.006 73.708C221.006 73.9165 221.006 74.151 221.006 74.4116C221.006 74.6722 220.98 74.9589 220.928 75.2716C220.928 75.5843 220.928 75.9491 220.928 76.3661C220.876 76.7309 220.849 77.1218 220.849 77.5387C220.849 77.9557 220.823 78.3726 220.771 78.7896C220.719 79.7277 220.693 80.718 220.693 81.7603C220.693 82.8027 220.666 83.8972 220.614 85.0438V86.7637C220.614 87.0764 220.588 87.3891 220.536 87.7018C220.536 88.0145 220.536 88.3012 220.536 88.5618V95.8323C220.536 96.2493 220.562 96.562 220.614 96.7704V99.3503C220.614 99.9236 220.614 100.497 220.614 101.07C220.666 101.591 220.693 102.113 220.693 102.634C220.693 103.207 220.693 103.728 220.693 104.197C220.745 104.666 220.771 105.135 220.771 105.605C220.823 106.074 220.849 106.517 220.849 106.934C220.849 107.298 220.876 107.689 220.928 108.106C220.928 108.471 220.928 108.81 220.928 109.123C220.98 109.435 221.006 109.722 221.006 109.982C221.006 110.243 221.006 110.504 221.006 110.764C221.059 110.973 221.085 111.129 221.085 111.233V111.624C221.085 111.676 221.111 111.702 221.163 111.702V111.233C221.163 111.129 221.163 110.973 221.163 110.764C221.216 110.504 221.242 110.243 221.242 109.982C221.242 109.722 221.242 109.435 221.242 109.123C221.294 108.81 221.32 108.471 221.32 108.106C221.372 107.689 221.399 107.298 221.399 106.934C221.399 106.517 221.425 106.074 221.477 105.605C221.477 105.135 221.477 104.666 221.477 104.197C221.529 103.728 221.555 103.207 221.555 102.634C221.555 102.113 221.555 101.591 221.555 101.07C221.608 100.497 221.634 99.9236 221.634 99.3503V97.6304C221.634 97.2135 221.66 96.9268 221.712 96.7704V88.5618Z" fill="#666360"/>
<path d="M273.506 122.882C274.081 122.986 274.473 123.168 274.683 123.429C274.944 123.69 275.127 123.95 275.232 124.211C275.336 124.524 275.389 124.862 275.389 125.227C273.715 125.227 272.146 125.019 270.682 124.602C269.218 124.185 267.91 123.507 266.76 122.569C265.662 121.631 264.773 120.406 264.093 118.895C263.465 117.383 263.152 115.533 263.152 113.344V102.634C263.152 101.956 263.125 101.122 263.073 100.132C263.021 99.1418 262.838 98.2037 262.524 97.3177C262.21 96.4317 261.714 95.676 261.034 95.0505C260.406 94.373 259.465 94.0342 258.21 94.0342H254.994C254.523 94.1385 254.105 94.3991 253.739 94.816C253.425 95.1808 253.268 95.6238 253.268 96.145V114.829C253.268 115.768 253.346 116.471 253.503 116.94C253.712 117.357 253.922 117.696 254.131 117.957C254.34 118.165 254.523 118.374 254.68 118.582C254.889 118.79 254.994 119.129 254.994 119.598H250.836C250.523 119.598 250.235 119.468 249.973 119.207C249.712 118.947 249.581 118.66 249.581 118.347C249.581 118.66 249.45 118.947 249.189 119.207C248.98 119.468 248.692 119.598 248.326 119.598H244.247C244.247 119.129 244.326 118.79 244.482 118.582C244.692 118.374 244.901 118.165 245.11 117.957C245.319 117.696 245.502 117.357 245.659 116.94C245.868 116.523 245.973 115.872 245.973 114.986V95.9105C245.816 94.2948 245.084 93.1222 243.777 92.3925C244.352 92.0277 245.084 91.8453 245.973 91.8453V69.4864C245.973 68.6004 245.868 67.9489 245.659 67.532C245.502 67.115 245.319 66.8023 245.11 66.5939C244.901 66.3333 244.692 66.0987 244.482 65.8903C244.326 65.6818 244.247 65.343 244.247 64.874H248.405C248.718 64.874 249.006 65.0042 249.267 65.2648C249.529 65.4733 249.66 65.76 249.66 66.1248C249.66 65.2909 250.078 64.874 250.915 64.874H258.288C259.962 64.874 261.531 65.1867 262.995 65.8121C264.459 66.4375 265.74 67.2975 266.838 68.3919C267.937 69.4343 268.799 70.6852 269.427 72.1445C270.055 73.6038 270.394 75.1413 270.447 76.757V81.8385C270.447 84.0275 269.924 86.034 268.878 87.8582C267.832 89.6823 266.42 91.1417 264.642 92.2361C266.42 93.2785 267.832 94.7378 268.878 96.6141C269.924 98.4382 270.447 100.445 270.447 102.634V113.031C270.447 114.126 270.447 115.246 270.447 116.393C270.499 117.488 270.63 118.504 270.839 119.442C271.048 120.328 271.362 121.084 271.78 121.709C272.199 122.335 272.774 122.725 273.506 122.882ZM266.368 80.5095C266.315 80.6137 266.289 80.744 266.289 80.9004V82.6985C266.237 82.9069 266.211 83.1154 266.211 83.3239C266.211 83.4802 266.211 83.6366 266.211 83.793C266.211 83.8972 266.185 83.9754 266.132 84.0275C266.132 84.0796 266.132 84.1578 266.132 84.262V84.7311C266.08 84.8353 266.054 84.9656 266.054 85.122C266.054 85.2262 266.028 85.3304 265.976 85.4347C265.976 85.5389 265.949 85.6171 265.897 85.6692V85.8256L265.819 85.9819C265.819 85.9819 265.871 85.9559 265.976 85.9037V85.8256L266.054 85.7474C266.106 85.6953 266.132 85.6692 266.132 85.6692C266.132 85.6171 266.159 85.565 266.211 85.5129C266.263 85.4086 266.315 85.3044 266.368 85.2001C266.42 85.0438 266.472 84.9135 266.525 84.8093C266.577 84.705 266.603 84.6529 266.603 84.6529C266.603 84.6008 266.629 84.5226 266.682 84.4184C266.734 84.3141 266.76 84.236 266.76 84.1838C266.76 84.0796 266.786 83.9754 266.838 83.8711C266.891 83.7669 266.917 83.6887 266.917 83.6366C266.917 83.5845 266.943 83.5063 266.995 83.4021C266.995 83.2978 266.995 83.2196 266.995 83.1675C267.048 83.0633 267.074 82.9591 267.074 82.8548C267.126 82.6463 267.152 82.4379 267.152 82.2294C267.204 82.0209 267.257 81.8125 267.309 81.604C267.361 81.4476 267.387 81.2131 267.387 80.9004C267.387 80.7961 267.387 80.6919 267.387 80.5877C267.44 80.4834 267.466 80.3792 267.466 80.275V77.5387C267.466 77.226 267.44 76.9915 267.387 76.8351V76.5224C267.387 76.4182 267.361 76.3661 267.309 76.3661C267.309 76.314 267.309 76.2358 267.309 76.1315C267.309 75.8709 267.257 75.4801 267.152 74.9589C267.1 74.8546 267.074 74.7504 267.074 74.6462C267.074 74.5419 267.048 74.4377 266.995 74.3335C266.995 74.2813 266.969 74.2553 266.917 74.2553C266.917 74.2032 266.917 74.151 266.917 74.0989C266.917 74.0468 266.891 74.0207 266.838 74.0207C266.838 73.9686 266.838 73.9165 266.838 73.8644C266.786 73.7602 266.76 73.682 266.76 73.6299C266.76 73.5777 266.734 73.4996 266.682 73.3953C266.629 73.2911 266.603 73.2129 266.603 73.1608C266.603 73.1087 266.577 73.0305 266.525 72.9263C266.472 72.8741 266.446 72.822 266.446 72.7699C266.446 72.7178 266.42 72.6657 266.368 72.6135C266.263 72.4051 266.211 72.3008 266.211 72.3008C266.159 72.2487 266.132 72.2227 266.132 72.2227C266.132 72.1705 266.106 72.1184 266.054 72.0663C266.002 72.0142 265.976 71.9621 265.976 71.9099C265.923 71.8578 265.897 71.8057 265.897 71.7536H265.819C265.819 71.7536 265.845 71.8057 265.897 71.9099V72.0663C265.949 72.1184 265.976 72.2227 265.976 72.379C265.976 72.4311 265.976 72.4832 265.976 72.5354C266.028 72.5354 266.054 72.5875 266.054 72.6917C266.054 72.8481 266.08 72.9784 266.132 73.0826V73.4735C266.132 73.5777 266.132 73.6559 266.132 73.708C266.185 73.7602 266.211 73.8383 266.211 73.9426C266.211 74.4116 266.237 74.7765 266.289 75.0371V76.2879C266.342 76.5485 266.368 76.9654 266.368 77.5387V80.5095ZM250.209 88.5618C250.209 88.3012 250.183 88.0145 250.13 87.7018C250.13 87.3891 250.13 87.0764 250.13 86.7637V85.0438C250.078 83.8972 250.052 82.8027 250.052 81.7603C250.052 80.718 250.026 79.7277 249.973 78.7896C249.921 78.3726 249.895 77.9557 249.895 77.5387C249.895 77.1218 249.869 76.7309 249.817 76.3661C249.817 75.9491 249.79 75.5843 249.738 75.2716C249.738 74.9589 249.738 74.6722 249.738 74.4116C249.738 74.151 249.712 73.9165 249.66 73.708C249.66 73.4996 249.66 73.3171 249.66 73.1608V72.7699C249.607 72.7699 249.581 72.796 249.581 72.8481V73.1608C249.581 73.3171 249.555 73.4996 249.503 73.708C249.503 73.9165 249.503 74.151 249.503 74.4116C249.503 74.6722 249.477 74.9589 249.424 75.2716C249.424 75.5843 249.424 75.9491 249.424 76.3661C249.372 76.7309 249.346 77.1218 249.346 77.5387C249.346 77.9557 249.32 78.3726 249.267 78.7896C249.215 79.7277 249.189 80.718 249.189 81.7603C249.189 82.8027 249.163 83.8972 249.111 85.0438V86.7637C249.111 87.0764 249.084 87.3891 249.032 87.7018C249.032 88.0145 249.032 88.3012 249.032 88.5618V95.8323C249.032 96.2493 249.058 96.562 249.111 96.7704V99.3503C249.111 99.9236 249.111 100.497 249.111 101.07C249.163 101.591 249.189 102.113 249.189 102.634C249.189 103.207 249.189 103.728 249.189 104.197C249.241 104.666 249.267 105.135 249.267 105.605C249.32 106.074 249.346 106.517 249.346 106.934C249.346 107.298 249.372 107.689 249.424 108.106C249.424 108.471 249.424 108.81 249.424 109.123C249.477 109.435 249.503 109.722 249.503 109.982C249.503 110.243 249.503 110.504 249.503 110.764C249.555 110.973 249.581 111.129 249.581 111.233V111.624C249.581 111.676 249.607 111.702 249.66 111.702V111.233C249.66 111.129 249.66 110.973 249.66 110.764C249.712 110.504 249.738 110.243 249.738 109.982C249.738 109.722 249.738 109.435 249.738 109.123C249.79 108.81 249.817 108.471 249.817 108.106C249.869 107.689 249.895 107.298 249.895 106.934C249.895 106.517 249.921 106.074 249.973 105.605C249.973 105.135 249.973 104.666 249.973 104.197C250.026 103.728 250.052 103.207 250.052 102.634C250.052 102.113 250.052 101.591 250.052 101.07C250.104 100.497 250.13 99.9236 250.13 99.3503V97.6304C250.13 97.2135 250.156 96.9268 250.209 96.7704V88.5618ZM263.152 77.0697C263.152 76.3921 263.125 75.5582 263.073 74.568C263.021 73.5777 262.838 72.6396 262.524 71.7536C262.21 70.8676 261.714 70.1119 261.034 69.4864C260.406 68.8089 259.465 68.4701 258.21 68.4701H255.386C254.811 68.5222 254.314 68.7568 253.896 69.1737C253.477 69.5907 253.268 70.0858 253.268 70.6591V88.2491C253.268 88.8224 253.477 89.3175 253.896 89.7345C254.314 90.1514 254.811 90.3599 255.386 90.3599H258.21C259.465 90.3599 260.406 90.0472 261.034 89.4217C261.714 88.7963 262.21 88.0406 262.524 87.1546C262.838 86.2165 263.021 85.2783 263.073 84.3402C263.125 83.3499 263.152 82.516 263.152 81.8385V77.0697ZM268.407 119.911C268.407 119.911 268.381 119.885 268.329 119.833L268.25 119.755C268.198 119.65 268.146 119.546 268.093 119.442C268.093 119.338 268.041 119.233 267.937 119.129C267.884 118.973 267.832 118.817 267.78 118.66C267.727 118.452 267.675 118.217 267.623 117.957C267.518 117.435 267.466 116.94 267.466 116.471C267.414 116.211 267.387 115.95 267.387 115.689C267.387 115.377 267.387 115.038 267.387 114.673V110.53C267.387 110.165 267.387 109.8 267.387 109.435C267.387 109.07 267.414 108.68 267.466 108.263C267.466 107.898 267.466 107.533 267.466 107.168C267.466 106.803 267.44 106.438 267.387 106.074V104.979C267.387 104.458 267.361 104.093 267.309 103.885C267.309 103.52 267.283 103.181 267.231 102.868C267.231 102.503 267.204 102.165 267.152 101.852C267.048 101.122 266.943 100.497 266.838 99.9757C266.786 99.7151 266.734 99.4806 266.682 99.2721C266.629 99.0115 266.551 98.7509 266.446 98.4904C266.342 98.2298 266.263 98.0213 266.211 97.8649C266.159 97.7086 266.08 97.5522 265.976 97.3959C265.871 97.2395 265.793 97.1092 265.74 97.005C265.688 96.9007 265.636 96.7965 265.583 96.6923C265.531 96.6923 265.479 96.6662 265.426 96.6141C265.374 96.6141 265.348 96.588 265.348 96.5359L265.426 96.6141C265.426 96.6662 265.453 96.7183 265.505 96.7704C265.505 96.8226 265.505 96.8747 265.505 96.9268C265.557 96.9268 265.583 96.9789 265.583 97.0832C265.636 97.1353 265.662 97.1874 265.662 97.2395C265.662 97.2916 265.688 97.3698 265.74 97.474C265.793 97.6825 265.871 98.0473 265.976 98.5685C266.028 98.8291 266.054 99.0897 266.054 99.3503C266.106 99.6109 266.159 99.8715 266.211 100.132C266.211 100.393 266.211 100.679 266.211 100.992C266.263 101.253 266.289 101.565 266.289 101.93V111.624C266.289 111.833 266.289 112.015 266.289 112.171C266.342 112.328 266.368 112.51 266.368 112.719C266.368 113.084 266.368 113.448 266.368 113.813C266.42 114.126 266.472 114.439 266.525 114.751C266.577 115.064 266.603 115.377 266.603 115.689C266.655 116.002 266.708 116.289 266.76 116.549C266.865 116.862 266.943 117.149 266.995 117.409C267.048 117.618 267.126 117.852 267.231 118.113C267.335 118.374 267.414 118.582 267.466 118.738C267.518 118.895 267.597 119.051 267.701 119.207L267.858 119.364C267.91 119.416 267.937 119.468 267.937 119.52C267.937 119.52 267.963 119.546 268.015 119.598L268.329 119.911H268.407Z" fill="#666360"/>
</svg>
